<?xml version="1.0" encoding="utf-8" ?>
<svg baseProfile="full" height="500" version="1.1" width="500" xmlns="http://www.w3.org/2000/svg" xmlns:ev="http://www.w3.org/2001/xml-events" xmlns:xlink="http://www.w3.org/1999/xlink"><defs /><circle cx="247.56698478852658" cy="252.22944768513167" fill="black" r="2" /><circle cx="250.40674755032705" cy="245.35085422574178" fill="black" r="2" /><circle cx="253.47953889161343" cy="254.53462336933836" fill="black" r="2" /><circle cx="243.50026883011944" cy="248.85392202739826" fill="black" r="2" /><circle cx="256.2234059947822" cy="246.0352531197932" fill="black" r="2" /><circle cx="247.90788383248866" cy="257.80788383248864" fill="black" r="2" /><circle cx="245.96848240379882" cy="242.25552675312775" fill="black" r="2" /><circle cx="258.7709119219305" cy="253.19235086695326" fill="black" r="2" /><circle cx="240.85359262813827" cy="253.7885659804144" fill="black" r="2" /><circle cx="254.41023975000994" cy="240.5422103349973" fill="black" r="2" /><circle cx="253.2911834204904" cy="260.4383002300513" fill="black" r="2" /><circle cx="240.1" cy="244.28423233502272" fill="black" r="2" /><circle cx="261.61628153521553" cy="247.42473238388493" fill="black" r="2" /><circle cx="242.91778251715718" cy="260.1144547814361" fill="black" r="2" /><circle cx="248.33176496324998" cy="237.32849685861382" fill="black" r="2" /><circle cx="260.11178664917054" cy="258.4847964478623" fill="black" r="2" /><circle cx="236.40670156919734" cy="250.5934962267257" fill="black" r="2" /><circle cx="259.8999999999999" cy="240.09999999999994" fill="black" r="2" /><circle cx="249.37256274503466" cy="264.37067578407783" fill="black" r="2" /><circle cx="240.51370918366553" cy="238.69467883924" fill="black" r="2" /><circle cx="264.9931247112476" cy="251.97388231487497" fill="black" r="2" /><circle cx="237.3208599278586" cy="258.8780294565302" fill="black" r="2" /><circle cx="253.42542614727935" cy="234.5489011488006" fill="black" r="2" /><circle cx="258.08331615118453" cy="264.0007142674936" fill="black" r="2" /><circle cx="234.26367031265423" cy="245.03835430817958" fill="black" r="2" /><circle cx="265.2502276016892" cy="242.88870208072547" fill="black" r="2" /><circle cx="243.43801123409543" cy="265.8420422747871" fill="black" r="2" /><circle cx="244.0276583987451" cy="233.59112630928252" fill="black" r="2" /><circle cx="265.76310842384873" cy="258.20575485973035" fill="black" r="2" /><circle cx="232.5410409901338" cy="254.67811396738173" fill="black" r="2" /><circle cx="259.8721401180027" cy="234.50384404148815" fill="black" r="2" /><circle cx="253.24159802478096" cy="268.3840159444485" fill="black" r="2" /><circle cx="234.96035571832735" cy="238.45967505306928" fill="black" r="2" /><circle cx="269.16891909616055" cy="248.32293688704019" fill="black" r="2" /><circle cx="236.81040962251438" cy="264.3939121045718" fill="black" r="2" /><circle cx="249.99999999999974" cy="230.2" fill="black" r="2" /><circle cx="263.5612008423791" cy="264.79945376399604" fill="black" r="2" /><circle cx="229.7348433962193" cy="248.2270285325917" fill="black" r="2" /><circle cx="266.34981707306673" cy="237.45434411131663" fill="black" r="2" /><circle cx="246.37578323043056" cy="270.55395467561345" fill="black" r="2" /><circle cx="238.64669272160307" cy="232.1788773125176" fill="black" r="2" /><circle cx="270.6577188864469" cy="255.5352190930924" fill="black" r="2" /><circle cx="230.80548727044504" cy="259.99203087840266" fill="black" r="2" /><circle cx="257.48672640862185" cy="229.43038824667698" fill="black" r="2" /><circle cx="258.4714910694497" cy="270.45198863338805" fill="black" r="2" /><circle cx="229.71530102273664" cy="240.54108952353332" fill="black" r="2" /><circle cx="271.5765682028958" cy="243.19693417746203" fill="black" r="2" /><circle cx="238.56846467004556" cy="269.80000000000007" fill="black" r="2" /><circle cx="245.00024491802964" cy="227.44756223552957" fill="black" r="2" /><circle cx="269.11452285620595" cy="263.3841329931969" fill="black" r="2" /><circle cx="226.6349026894528" cy="253.0760734173064" fill="black" r="2" /><circle cx="265.2961843273209" cy="231.77071737493154" fill="black" r="2" /><circle cx="251.0479279799651" cy="274.0014967647604" fill="black" r="2" /><circle cx="232.8526970050678" cy="232.85269700506842" fill="black" r="2" /><circle cx="274.4501617011223" cy="251.06751711413645" fill="black" r="2" /><circle cx="231.08257939532442" cy="265.87360065220855" fill="black" r="2" /><circle cx="253.2519887644012" cy="225.2986929682616" fill="black" r="2" /><circle cx="264.4151523937945" cy="270.58697115808155" fill="black" r="2" /><circle cx="225.25306265162368" cy="244.5137360731061" fill="black" r="2" /><circle cx="272.1370729772479" cy="237.21915495751549" fill="black" r="2" /><circle cx="242.24966166869947" cy="274.5809327681106" fill="black" r="2" /><circle cx="239.0185915818633" cy="226.45029365036422" fill="black" r="2" /><circle cx="274.19911929563426" cy="260.02360340973553" fill="black" r="2" /><circle cx="225.1921148112521" cy="259.0293317837979" fill="black" r="2" /><circle cx="262.28502990490693" cy="226.40067712336767" fill="black" r="2" /><circle cx="256.93876434547184" cy="275.89582107904687" fill="black" r="2" /><circle cx="227.21859352109854" cy="235.48664343292475" fill="black" r="2" /><circle cx="276.79907815153695" cy="245.27459946376882" fill="black" r="2" /><circle cx="233.31271769700788" cy="271.7472897010236" fill="black" r="2" /><circle cx="247.59364904068428" cy="222.49528267622804" fill="black" r="2" /><circle cx="270.50095057229146" cy="268.7856601063807" fill="black" r="2" /><circle cx="221.99857146501273" cy="250.00000000000068" fill="black" r="2" /><circle cx="270.7876910792431" cy="230.95159062824519" fill="black" r="2" /><circle cx="247.52585124158003" cy="278.27964971355215" fill="black" r="2" /><circle cx="232.60230554193257" cy="227.32688315330842" fill="black" r="2" /><circle cx="278.33167132969083" cy="254.99563806398885" fill="black" r="2" /><circle cx="225.57759132459086" cy="265.5587902643908" fill="black" r="2" /><circle cx="257.5432321161892" cy="221.84827448909584" fill="black" r="2" /><circle cx="263.5435677729848" cy="276.01695162732494" fill="black" r="2" /><circle cx="222.26394116997454" cy="239.90490017001483" fill="black" r="2" /><circle cx="277.4392221155852" cy="238.63430205875684" fill="black" r="2" /><circle cx="237.37099528264216" cy="277.08298801552286" fill="black" r="2" /><circle cx="240.95945129628427" cy="221.32704272078402" fill="black" r="2" /><circle cx="276.19293797953975" cy="265.12249979335377" fill="black" r="2" /><circle cx="220.29668534430485" cy="256.5850663219716" fill="black" r="2" /><circle cx="267.55312586079384" cy="224.9315382898126" fill="black" r="2" /><circle cx="254.0176419949364" cy="280.517020706493" fill="black" r="2" /><circle cx="226.2857582703793" cy="230.10138851102633" fill="black" r="2" /><circle cx="281.1025068389792" cy="248.64203522459127" fill="black" r="2" /><circle cx="227.86292702275213" cy="272.13707297724795" fill="black" r="2" /><circle cx="251.37313803713573" cy="218.549968331797" fill="black" r="2" /><circle cx="270.3458271367751" cy="274.2472125845522" fill="black" r="2" /><circle cx="218.44821162682857" cy="245.84612825732373" fill="black" r="2" /><circle cx="276.20851331072345" cy="231.64860141456154" fill="black" r="2" /><circle cx="243.03834506308985" cy="281.40199612348545" fill="black" r="2" /><circle cx="233.83336769763065" cy="221.99857146501293" fill="black" r="2" /><circle cx="280.99697468257017" cy="259.7733085763268" fill="black" r="2" /><circle cx="220.39243514902282" cy="263.80623422933206" fill="black" r="2" /><circle cx="262.5652518505393" cy="219.66479856779392" fill="black" r="2" /><circle cx="261.2866647297477" cy="281.00985648593473" fill="black" r="2" /><circle cx="220.58264979150766" cy="234.68629676691768" fill="black" r="2" /><circle cx="282.1927297539029" cy="241.37398406028748" fill="black" r="2" /><circle cx="232.00511497184152" cy="278.2463114905886" fill="black" r="2" /><circle cx="244.1561260536039" cy="216.85774393167188" fill="black" r="2" /><circle cx="276.82719363931415" cy="270.5852296911825" fill="black" r="2" /><circle cx="216.15370787211612" cy="252.96116686357672" fill="black" r="2" /><circle cx="273.0615861756966" cy="224.83269495832107" fill="black" r="2" /><circle cx="250.00000000000125" cy="284.2946059898638" fill="black" r="2" /><circle cx="226.72388282164354" cy="224.59857545137635" fill="black" r="2" /><circle cx="284.47898785734094" cy="253.0165205673649" fill="black" r="2" /><circle cx="222.41696287997388" cy="271.16520879262146" fill="black" r="2" /><circle cx="256.06447459718703" cy="215.60665547144225" fill="black" r="2" /><circle cx="268.8481915001124" cy="279.5857343524728" fill="black" r="2" /><circle cx="215.96622341127676" cy="240.88067704767107" fill="black" r="2" /><circle cx="281.39003384885257" cy="233.65938266258306" fill="black" r="2" /><circle cx="237.8438900614878" cy="283.39863756446965" fill="black" r="2" /><circle cx="236.34013109713612" cy="217.02215923447122" fill="black" r="2" /><circle cx="282.4885744085475" cy="265.1496710492431" fill="black" r="2" /><circle cx="215.66738193995013" cy="260.825032893379" fill="black" r="2" /><circle cx="268.0748443976704" cy="218.693451164333" fill="black" r="2" /><circle cx="257.8567579859528" cy="285.43954505845363" fill="black" r="2" /><circle cx="220.14216081144096" cy="229.09331592551922" fill="black" r="2" /><circle cx="286.2856629162222" cy="245.22290185046415" fill="black" r="2" /><circle cx="226.37932635586301" cy="278.1500226748962" fill="black" r="2" /><circle cx="248.3906573977846" cy="213.13999435175444" fill="black" r="2" /><circle cx="276.19293797954055" cy="276.1929379795383" fill="black" r="2" /><circle cx="212.846284483905" cy="248.3778337480138" fill="black" r="2" /><circle cx="278.6004516381598" cy="226.00137157891558" fill="black" r="2" /><circle cx="245.10777453652994" cy="287.1601416845331" fill="black" r="2" /><circle cx="228.4187340142679" cy="219.1787579995049" fill="black" r="2" /><circle cx="286.87492119251687" cy="258.17497321375856" fill="black" r="2" /><circle cx="217.16541457548203" cy="268.95705673357634" fill="black" r="2" /><circle cx="261.44409790269924" cy="213.70395857406163" fill="black" r="2" /><circle cx="266.1441282311685" cy="284.62119471733445" fill="black" r="2" /><circle cx="214.57611657115007" cy="235.32694705184872" fill="black" r="2" /><circle cx="286.16339628710824" cy="236.83760018151833" fill="black" r="2" /><circle cx="232.1647244580476" cy="284.26124554569833" fill="black" r="2" /><circle cx="239.96656333341653" cy="212.5547045857873" fill="black" r="2" /><circle cx="282.8133470479583" cy="270.9044075618097" fill="black" r="2" /><circle cx="211.5470718302874" cy="256.7802887235665" fill="black" r="2" /><circle cx="273.85451680956294" cy="218.91218843690862" fill="black" r="2" /><circle cx="253.42731577892894" cy="289.17439861122955" fill="black" r="2" /><circle cx="220.90536970926885" cy="223.3396832680917" fill="black" r="2" /><circle cx="289.6" cy="249.99999999999807" fill="black" r="2" /><circle cx="220.70261721940358" cy="276.84610515898373" fill="black" r="2" /><circle cx="253.47525259339204" cy="210.27768109221063" fill="black" r="2" /><circle cx="274.35677224129427" cy="281.7423635853683" fill="black" r="2" /><circle cx="210.46367878283905" cy="243.02867985145798" fill="black" r="2" /><circle cx="283.9731851441909" cy="228.35669407972694" fill="black" r="2" /><circle cx="239.5394191624445" cy="289.03941916244355" fill="black" r="2" /><circle cx="231.27559555247808" cy="214.03075371813276" fill="black" r="2" /><circle cx="288.2315187103913" cy="263.9151348213735" fill="black" r="2" /><circle cx="212.28839631088596" cy="265.6206577068701" fill="black" r="2" /><circle cx="267.307030526624" cy="212.88495326218077" fill="black" r="2" /><circle cx="262.3543981407928" cy="289.18314492966044" fill="black" r="2" /><circle cx="214.3050423729062" cy="229.39150660528583" fill="black" r="2" /><circle cx="290.36874789196565" cy="241.05046405477265" fill="black" r="2" /><circle cx="226.20784476985287" cy="283.97871906803704" fill="black" r="2" /><circle cx="244.56862022492226" cy="208.7445747356923" fill="black" r="2" /><circle cx="281.9762770250614" cy="276.8312822581503" fill="black" r="2" /><circle cx="208.16754727357437" cy="251.82644433021196" fill="black" r="2" /><circle cx="279.70000000000005" cy="220.30000000000007" fill="black" r="2" /><circle cx="248.16224630890426" cy="292.0914796766622" fill="black" r="2" /><circle cx="222.83539710750333" cy="217.62648691147405" fill="black" r="2" /><circle cx="292.0266214497878" cy="255.53290967902382" fill="black" r="2" /><circle cx="215.17168182430046" cy="274.38705092979137" fill="black" r="2" /><circle cx="259.23015355401685" cy="208.3654678737797" fill="black" r="2" /><circle cx="271.38644430474733" cy="287.0424081290612" fill="black" r="2" /><circle cx="209.08554281290074" cy="237.09972120126776" fill="black" r="2" /><circle cx="288.99546577368096" cy="231.81611567641076" fill="black" r="2" /><circle cx="233.48602375043765" cy="289.8682654304008" fill="black" r="2" /><circle cx="235.19767797805332" cy="209.33095448921142" fill="black" r="2" /><circle cx="288.50045972967325" cy="270.04207076636067" fill="black" r="2" /><circle cx="207.9532587670879" cy="261.2663903577201" fill="black" r="2" /><circle cx="273.4557588630983" cy="213.18183361224808" fill="black" r="2" /><circle cx="257.60222123122225" cy="293.1143390573433" fill="black" r="2" /><circle cx="215.16889698841985" cy="223.2731546381416" fill="black" r="2" /><circle cx="293.8599535145325" cy="246.16275128470312" fill="black" r="2" /><circle cx="220.172022871937" cy="282.55152500955603" fill="black" r="2" /><circle cx="249.9999999999998" cy="205.72585404550415" fill="black" r="2" /><circle cx="279.994150988382" cy="282.73287195597334" fill="black" r="2" /><circle cx="205.64997592833143" cy="246.1198756666288" fill="black" r="2" /><circle cx="285.4165407007331" cy="222.82393249947086" fill="black" r="2" /><circle cx="242.22692100342434" cy="294.08332159573496" fill="black" r="2" /><circle cx="225.8833862349614" cy="212.14449920410576" fill="black" r="2" /><circle cx="293.4724573516475" cy="261.6484098403683" fill="black" r="2" /><circle cx="209.9720206463138" cy="270.83724715169626" fill="black" r="2" /><circle cx="265.4754949955341" cy="207.48142694488445" fill="black" r="2" /><circle cx="267.3613903805838" cy="291.9141041184584" fill="black" r="2" /><circle cx="208.7744506209888" cy="230.77621061292263" fill="black" r="2" /><circle cx="293.4960806314808" cy="236.28573845590958" fill="black" r="2" /><circle cx="227.1369293400919" cy="289.6000000000006" fill="black" r="2" /><circle cx="240.07731179467964" cy="205.2416459330775" fill="black" r="2" /><circle cx="287.6512435119905" cy="276.36368453006503" fill="black" r="2" /><circle cx="204.31224568652942" cy="256.0149069645299" fill="black" r="2" /><circle cx="279.6967875675169" cy="214.60874672790217" fill="black" r="2" /><circle cx="252.02035001210731" cy="296.27362300305197" fill="black" r="2" /><circle cx="217.1654145754812" cy="217.1654145754819" fill="black" r="2" /><circle cx="296.50792132627316" cy="252.03057969781742" fill="black" r="2" /><circle cx="214.24943545230096" cy="279.9982855263564" fill="black" r="2" /><circle cx="256.10674291640345" cy="203.61468237736258" fill="black" r="2" /><circle cx="276.90177437563494" cy="288.4197154523876" fill="black" r="2" /><circle cx="204.09674610897218" cy="239.82349361441567" fill="black" r="2" /><circle cx="290.81874569361366" cy="226.43328618580654" fill="black" r="2" /><circle cx="235.79200896102932" cy="295.0619905312285" fill="black" r="2" /><circle cx="229.9831465548917" cy="207.07371926014255" fill="black" r="2" /><circle cx="293.8646287990346" cy="268.16932415702087" fill="black" r="2" /><circle cx="205.27694895807372" cy="266.2778593648322" fill="black" r="2" /><circle cx="272.0288934708542" cy="207.68288936553256" fill="black" r="2" /><circle cx="262.37712616251133" cy="296.19206369017604" fill="black" r="2" /><circle cx="209.571804296721" cy="224.24439881933688" fill="black" r="2" /><circle cx="297.31875716751233" cy="241.6564264177751" fill="black" r="2" /><circle cx="220.68088415767534" cy="288.2094156749923" fill="black" r="2" /><circle cx="245.79257062357803" cy="201.9088621673138" fill="black" r="2" /><circle cx="285.6750059445169" cy="282.69012008021207" fill="black" r="2" /><circle cx="201.50010309289308" cy="250.00000000000355" fill="black" r="2" /><circle cx="285.8405521048364" cy="217.15818481233862" fill="black" r="2" /><circle cx="245.75343090283948" cy="298.5385068878621" fill="black" r="2" /><circle cx="220.27080667807553" cy="211.25616094876966" fill="black" r="2" /><circle cx="298.20329646859705" cy="258.4995417265015" fill="black" r="2" /><circle cx="208.62487979262977" cy="276.3588586214514" fill="black" r="2" /><circle cx="262.7258458327692" cy="202.50649678281678" fill="black" r="2" /><circle cx="272.754744907541" cy="293.71145827117573" fill="black" r="2" /><circle cx="203.58869656664106" cy="233.10766701675925" fill="black" r="2" /><circle cx="295.73203685930724" cy="231.05717009792454" fill="black" r="2" /><circle cx="229.03395957392254" cy="294.9618187894138" fill="black" r="2" /><circle cx="235.0490540105913" cy="202.5816574095869" fill="black" r="2" /><circle cx="293.1530995410537" cy="274.9144536363918" fill="black" r="2" /><circle cx="201.24566982108252" cy="260.80857478139905" fill="black" r="2" /><circle cx="278.7057672516528" cy="209.00391571754764" fill="black" r="2" /><circle cx="256.54662701875884" cy="299.72656910221394" fill="black" r="2" /><circle cx="211.49546359250706" cy="217.6908577018199" fill="black" r="2" /><circle cx="300.3243705429937" cy="247.80279053081665" fill="black" r="2" /><circle cx="214.30504237290936" cy="285.69495762709636" fill="black" r="2" /><circle cx="252.2066194028966" cy="199.46010654135924" fill="black" r="2" /><circle cx="282.5864790785163" cy="288.8350535118135" fill="black" r="2" /><circle cx="199.6317712101949" cy="243.36889688077096" fill="black" r="2" /><circle cx="291.70296540939376" cy="220.7992692546418" fill="black" r="2" /><circle cx="238.95795173888013" cy="299.8074609892845" fill="black" r="2" /><circle cx="224.4383099150308" cy="205.72585404550432" fill="black" r="2" /><circle cx="298.85870622885955" cy="265.4050909001538" fill="black" r="2" /><circle cx="203.47382666274933" cy="271.6955109318058" fill="black" r="2" /><circle cx="269.68596629771025" cy="202.4738731756372" fill="black" r="2" /><circle cx="267.63033390951824" cy="298.43894431383586" fill="black" r="2" /><circle cx="204.18307839342182" cy="226.1492202539064" fill="black" r="2" /><circle cx="299.9948502108675" cy="236.60392026028063" fill="black" r="2" /><circle cx="222.13372359803117" cy="293.7412921561432" fill="black" r="2" /><circle cx="240.97577301950133" cy="198.82106558940058" fill="black" r="2" /><circle cx="291.312385012793" cy="281.70010795809304" fill="black" r="2" /><circle cx="198.02097005726375" cy="254.5475758610638" fill="black" r="2" /><circle cx="285.32109401144777" cy="211.45378983824133" fill="black" r="2" /><circle cx="250.0000000000045" cy="302.3858759590789" fill="black" r="2" /><circle cx="214.53846370886944" cy="211.30052398451846" fill="black" r="2" /><circle cx="302.3932120283582" cy="254.5838120981882" fill="black" r="2" /><circle cx="208.19283824930721" cy="282.0797635021116" fill="black" r="2" /><circle cx="259.168623780812" cy="198.00215064095508" fill="black" r="2" /><circle cx="278.424774337878" cy="294.6179583109841" fill="black" r="2" /><circle cx="198.80028176356404" cy="236.28107684584663" fill="black" r="2" /><circle cx="297.10779168297154" cy="225.47723582558942" fill="black" r="2" /><circle cx="231.80079996602913" cy="300.00189114547084" fill="black" r="2" /><circle cx="229.59794781276105" cy="200.7450889093364" fill="black" r="2" /><circle cx="298.410581241118" cy="272.5742247684635" fill="black" r="2" /><circle cx="198.9599236115062" cy="266.0928742695865" fill="black" r="2" /><circle cx="276.8093267352963" cy="203.56488397774666" fill="black" r="2" /><circle cx="261.6271594291207" cy="302.4467269103593" fill="black" r="2" /><circle cx="205.9121137387074" cy="219.12932969611242" fill="black" r="2" /><circle cx="303.46113032050886" cy="242.96170866945894" fill="black" r="2" /><circle cx="215.27447393835843" cy="291.38427043868546" fill="black" r="2" /><circle cx="247.63914322087777" cy="195.92748983754802" fill="black" r="2" /><circle cx="288.3425351274569" cy="288.3425351274499" fill="black" r="2" /><circle cx="195.7268490362803" cy="247.63038305431232" fill="black" r="2" /><circle cx="291.6919644182381" cy="215.01628803359532" fill="black" r="2" /><circle cx="242.8830661019894" cy="304.05847992582983" fill="black" r="2" /><circle cx="218.6685479498914" cy="205.25404920630533" fill="black" r="2" /><circle cx="303.4271244089932" cy="261.84450832183245" fill="black" r="2" /><circle cx="202.52126791920458" cy="277.4118587476305" fill="black" r="2" /><circle cx="266.51564839539924" cy="197.61905539149234" fill="black" r="2" /><circle cx="273.2533001387195" cy="299.86686307217076" fill="black" r="2" /><circle cx="199.0749589870204" cy="228.9061573480234" fill="black" r="2" /><circle cx="301.8894147006789" cy="231.1137975754529" fill="black" r="2" /><circle cx="224.45695316836523" cy="299.0677364319663" fill="black" r="2" /><circle cx="235.6571741716243" cy="196.47184528440312" fill="black" r="2" /><circle cx="296.8205325808617" cy="279.8279689024323" fill="black" r="2" /><circle cx="195.23229167720382" cy="259.6570246488824" fill="black" r="2" /><circle cx="283.91434999131957" cy="205.80195858789347" fill="black" r="2" /><circle cx="254.86399326342908" cy="305.5956974012676" fill="black" r="2" /><circle cx="208.78210841724317" cy="212.2307610154493" fill="black" r="2" /><circle cx="306.00285706997454" cy="249.99999999999451" fill="black" r="2" /><circle cx="208.63874140495528" cy="287.9006106472421" fill="black" r="2" /><circle cx="254.8978890969511" cy="194.0168714486769" fill="black" r="2" /><circle cx="284.2694837593225" cy="294.66086074931303" fill="black" r="2" /><circle cx="194.4662725409828" cy="240.2079055096675" fill="black" r="2" /><circle cx="297.6405692189659" cy="219.64961014265353" fill="black" r="2" /><circle cx="235.35518682742185" cy="304.6551868274209" fill="black" r="2" /><circle cx="223.82838350998827" cy="199.72479248874507" fill="black" r="2" /><circle cx="303.3513743952648" cy="269.41831223706845" fill="black" r="2" /><circle cx="197.45788986158271" cy="271.7636546150326" fill="black" r="2" /><circle cx="274.0752237091642" cy="198.37051614286952" fill="black" r="2" /><circle cx="267.15897486842465" cy="304.42131550656205" fill="black" r="2" /><circle cx="200.49999999999815" cy="221.4211616751167" fill="black" r="2" /><circle cx="305.8957388002405" cy="237.60821304349975" fill="black" r="2" /><circle cx="217.1066040592252" cy="296.97663784780065" fill="black" r="2" /><circle cx="242.50221603509422" cy="193.0486766122542" fill="black" r="2" /><circle cx="294.0762561423786" cy="286.98437027274406" fill="black" r="2" /><circle cx="192.42283056637456" cy="252.5138735074754" fill="black" r="2" /><circle cx="290.8187456936152" cy="209.18125430638554" fill="black" r="2" /><circle cx="247.47789775200528" cy="307.76563857736414" fill="black" r="2" /><circle cx="212.77310666786497" cy="205.6347161303138" fill="black" r="2" /><circle cx="307.5124337196797" cy="257.57165554152147" fill="black" r="2" /><circle cx="202.4052219153573" cy="283.32622239428906" fill="black" r="2" /><circle cx="262.5959487523176" cy="193.1833468512181" fill="black" r="2" /><circle cx="279.14481085888343" cy="300.4802931845677" fill="black" r="2" /><circle cx="194.31918156311727" cy="232.4439053830614" fill="black" r="2" /><circle cx="302.99738918012235" cy="225.2869115630877" fill="black" r="2" /><circle cx="227.5865413963311" cy="304.11087574066437" fill="black" r="2" /><circle cx="229.93638591178464" cy="194.87567333999294" fill="black" r="2" /><circle cx="302.1161703467408" cy="277.12996108344976" fill="black" r="2" /><circle cx="193.157747696747" cy="265.2308356006271" fill="black" r="2" /><circle cx="281.6683769268019" cy="200.29060548727233" fill="black" r="2" /><circle cx="260.2508330170132" cy="308.1353629253083" fill="black" r="2" /><circle cx="203.09349113515984" cy="214.0073698361363" fill="black" r="2" /><circle cx="308.9910466535284" cy="244.8389521682861" fill="black" r="2" /><circle cx="209.93191862868068" cy="293.7266378220569" fill="black" r="2" /><circle cx="250.0000000000002" cy="190.6" fill="black" r="2" /><circle cx="290.1919397235381" cy="293.8618054947523" fill="black" r="2" /><circle cx="190.64368021735652" cy="244.80699491040428" fill="black" r="2" /><circle cx="297.3428578783586" cy="213.67254746187757" fill="black" r="2" /><circle cx="239.62182255975912" cy="308.8575690376257" fill="black" r="2" /><circle cx="217.83908376885756" cy="199.51747364509737" fill="black" r="2" /><circle cx="307.90481626592157" cy="265.51554875632394" fill="black" r="2" /><circle cx="196.74543265265189" cy="277.72257305242" fill="black" r="2" /><circle cx="270.5652818700856" cy="193.49735243721824" fill="black" r="2" /><circle cx="273.0449471892272" cy="305.635424048404" fill="black" r="2" /><circle cx="195.34084861064423" cy="224.5120191188967" fill="black" r="2" /><circle cx="307.6044248750585" cy="231.83739460281805" fill="black" r="2" /><circle cx="219.75500041329548" cy="302.3858759590812" fill="black" r="2" /><circle cx="236.8880996205587" cy="190.8560394593023" fill="black" r="2" /><circle cx="299.6977594261368" cy="284.7987457823098" fill="black" r="2" /><circle cx="189.76036175337066" cy="257.9306988289324" fill="black" r="2" /><circle cx="289.1129790310724" cy="203.38696672265485" fill="black" r="2" /><circle cx="252.65809617802796" cy="310.88041166671223" fill="black" r="2" /><circle cx="206.84690045894723" cy="206.84690045894746" fill="black" r="2" /><circle cx="311.0586855817468" cy="252.66587978524706" fill="black" r="2" /><circle cx="203.11357415387653" cy="289.3423826347104" fill="black" r="2" /><circle cx="258.00057417753567" cy="189.2296057867834" fill="black" r="2" /><circle cx="285.2081568756301" cy="300.2824590629876" fill="black" r="2" /><circle cx="189.98494749278362" cy="236.6949831809178" fill="black" r="2" /><circle cx="303.3131315906303" cy="219.21964912480465" fill="black" r="2" /><circle cx="231.46176182919905" cy="308.7957798274898" fill="black" r="2" /><circle cx="223.90866977634275" cy="194.04696177006946" fill="black" r="2" /><circle cx="307.119295729813" cy="273.6595869644878" fill="black" r="2" /><circle cx="191.820352171403" cy="271.17566004969916" fill="black" r="2" /><circle cx="278.62904705602165" cy="195.00411229315324" fill="black" r="2" /><circle cx="266.06984920413197" cy="309.97349369977087" fill="black" r="2" /><circle cx="197.56064898867956" cy="216.5924489746476" fill="black" r="2" /><circle cx="311.31834122009286" cy="239.18792203060593" fill="black" r="2" /><circle cx="212.04271193971286" cy="299.46690088441346" fill="black" r="2" /><circle cx="244.5580886652027" cy="187.79866881630102" fill="black" r="2" /><circle cx="296.09905773348066" cy="292.2420036940155" fill="black" r="2" /><circle cx="187.38690232866608" cy="250.00000000000054" fill="black" r="2" /><circle cx="296.2272890179949" cy="207.64049398249827" fill="black" r="2" /><circle cx="244.52777137583783" cy="312.54785938691185" fill="black" r="2" /><circle cx="211.72507219224815" cy="200.1191429372812" fill="black" r="2" /><circle cx="312.00348361620786" cy="260.93288705944803" fill="black" r="2" /><circle cx="196.82719587195172" cy="283.87481219372603" fill="black" r="2" /><circle cx="266.33994961926163" cy="189.01847782778793" fill="black" r="2" /><circle cx="279.19124189878323" cy="306.0758539516495" fill="black" r="2" /><circle cx="190.51278109253934" cy="228.3484229984083" fill="black" r="2" /><circle cx="308.5655827282021" cy="225.7413413456944" fill="black" r="2" /><circle cx="223.1735588990076" cy="307.5294885937202" fill="black" r="2" /><circle cx="230.8863909453954" cy="189.37937686803494" fill="black" r="2" /><circle cx="305.12086719202006" cy="281.8240475112719" fill="black" r="2" /><circle cx="187.77715434943127" cy="263.79447277519154" fill="black" r="2" /><circle cx="286.60505319661564" cy="197.72256624055714" fill="black" r="2" /><circle cx="258.3411751837534" cy="313.3575157069304" fill="black" r="2" /><circle cx="200.98129553832314" cy="208.86842316542214" fill="black" r="2" /><circle cx="314.01342522805896" cy="247.20511349573766" fill="black" r="2" /><circle cx="204.63250061993787" cy="295.36749938006346" fill="black" r="2" /><circle cx="252.8022901900906" cy="185.8170024874927" fill="black" r="2" /><circle cx="291.3497830174449" cy="299.27875246402067" fill="black" r="2" /><circle cx="186.1376355487917" cy="241.59236021816787" fill="black" r="2" /><circle cx="302.83359232453955" cy="213.00552038365248" fill="black" r="2" /><circle cx="236.02183774092225" cy="313.05141536761005" fill="black" r="2" /><circle cx="217.66673539525897" cy="193.99714293002722" fill="black" r="2" /><circle cx="311.75381696093143" cy="269.4709036964332" fill="black" r="2" /><circle cx="191.239794806257" cy="277.4003336766036" fill="black" r="2" /><circle cx="274.84328851182823" cy="190.02299594079358" fill="black" r="2" /><circle cx="272.2321511959656" cy="311.0823333968155" fill="black" r="2" /><circle cx="192.26785888503957" cy="219.94654957775572" fill="black" r="2" /><circle cx="312.949171926295" cy="233.13282021813495" fill="black" r="2" /><circle cx="214.93944048014862" cy="305.03405460399006" fill="black" r="2" /><circle cx="238.6544069132624" cy="185.65594419443104" fill="black" r="2" /><circle cx="301.90113671519583" cy="289.82514290835064" fill="black" r="2" /><circle cx="184.74612948820857" cy="255.70897392097334" fill="black" r="2" /><circle cx="294.30939637810206" cy="201.644779055326" fill="black" r="2" /><circle cx="250.0000000000014" cy="315.6691708490369" fill="black" r="2" /><circle cx="205.57856957105702" cy="201.52251534323818" fill="black" r="2" /><circle cx="315.5842719684405" cy="255.7378803028323" fill="black" r="2" /><circle cx="197.70417214985218" cy="290.1280000681283" fill="black" r="2" /><circle cx="261.4607797260118" cy="185.0026883011933" fill="black" r="2" /><circle cx="285.5060736986486" cy="305.7333717848304" fill="black" r="2" /><circle cx="186.08971642927992" cy="232.87529112918568" fill="black" r="2" /><circle cx="308.76184007891686" cy="219.4105222251212" fill="black" r="2" /><circle cx="227.31408465775226" cy="312.3290401424919" fill="black" r="2" /><circle cx="224.5855267916494" cy="188.6440340998365" fill="black" r="2" /><circle cx="310.2632664656155" cy="278.101222658351" fill="black" r="2" /><circle cx="186.5062984806429" cy="270.0194871905049" fill="black" r="2" /><circle cx="283.328366296589" cy="192.27357624102817" fill="black" r="2" /><circle cx="264.4448269886009" cy="315.1564039313818" fill="black" r="2" /><circle cx="195.264336406985" cy="211.67367574326636" fill="black" r="2" /><circle cx="316.32899499482187" cy="241.2676221464655" fill="black" r="2" /><circle cx="206.9443604493855" cy="301.31171311589156" fill="black" r="2" /><circle cx="247.0747126890219" cy="182.99990526761752" fill="black" r="2" /><circle cx="297.4787320807972" cy="297.4787320807946" fill="black" r="2" /><circle cx="182.837873362955" cy="247.06763822328674" fill="black" r="2" /><circle cx="301.5601974414024" cy="206.7358573434813" fill="black" r="2" /><circle cx="241.20411310714834" cy="316.81139404149684" fill="black" r="2" /><circle cx="211.3015667812024" cy="194.73290973454218" fill="black" r="2" /><circle cx="315.94812682915153" cy="264.6203477293171" fill="black" r="2" /><circle cx="191.4308101473161" cy="283.8149375276706" fill="black" r="2" /><circle cx="270.3608916070541" cy="185.42350200757403" fill="black" r="2" /><circle cx="278.6495908930392" cy="311.43924593988345" fill="black" r="2" /><circle cx="187.29539022395326" cy="224.0269002074511" fill="black" r="2" /><circle cx="313.85320262085423" cy="226.7593348834391" fill="black" r="2" /><circle cx="218.58666796996673" cy="310.34444937830557" fill="black" r="2" /><circle cx="232.3715158296586" cy="184.20960141589032" fill="black" r="2" /><circle cx="307.5118144194865" cy="286.6390666117267" fill="black" r="2" /><circle cx="182.76625798725183" cy="261.8551227308376" fill="black" r="2" /><circle cx="291.6092333316715" cy="195.77379137768784" fill="black" r="2" /><circle cx="255.96408982871705" cy="318.1698586804681" fill="black" r="2" /><circle cx="199.4892916175025" cy="203.7154632874186" fill="black" r="2" /><circle cx="318.58921197972757" cy="249.9999999999899" fill="black" r="2" /><circle cx="199.37223304015953" cy="296.39180113619307" fill="black" r="2" /><circle cx="255.99176556819108" cy="181.51380616959474" fill="black" r="2" /><circle cx="291.8991966539489" cy="304.6040961810899" fill="black" r="2" /><circle cx="182.1408143609259" cy="238.0345946829337" fill="black" r="2" /><circle cx="308.1813575140092" cy="212.93438739441845" fill="black" r="2" /><circle cx="232.12495162914854" cy="316.7105887077885" fill="black" r="2" /><circle cx="218.07346405438292" cy="188.6696950723933" fill="black" r="2" /><circle cx="315.0468237258715" cy="273.6751076697742" fill="black" r="2" /><circle cx="185.9751483969718" cy="276.51996186291035" fill="black" r="2" /><circle cx="279.320632456402" cy="187.1217007835248" fill="black" r="2" /><circle cx="270.8861122195903" cy="316.2422849571984" fill="black" r="2" /><circle cx="189.78065095004763" cy="215.23234261558594" fill="black" r="2" /><circle cx="317.9634565460312" cy="234.93286442897232" fill="black" r="2" /><circle cx="210.02645446625945" cy="307.08813937642367" fill="black" r="2" /><circle cx="240.89320898956507" cy="180.82705472880122" fill="black" r="2" /><circle cx="303.5065455684944" cy="294.89732265209847" fill="black" r="2" /><circle cx="180.14080748485446" cy="253.05011821604214" fill="black" r="2" /><circle cx="299.49999999999244" cy="200.4999999999924" fill="black" r="2" /><circle cx="246.94309619556333" cy="320.01460804096826" fill="black" r="2" /><circle cx="204.90268828391837" cy="196.25511674603277" fill="black" r="2" /><circle cx="319.63564571566224" cy="259.1677066795778" fill="black" r="2" /><circle cx="192.40213497962907" cy="290.330459272058" fill="black" r="2" /><circle cx="265.2354886797707" cy="181.27715165471838" fill="black" r="2" /><circle cx="285.23435823170814" cy="311.02769862939004" fill="black" r="2" /><circle cx="182.71913885296175" cy="228.78642596560033" fill="black" r="2" /><circle cx="314.00625101435156" cy="220.15339498221246" fill="black" r="2" /><circle cx="222.94422720406857" cy="315.3184136244515" fill="black" r="2" /><circle cx="225.79280100218133" cy="183.4912673652549" fill="black" r="2" /><circle cx="312.8482698554617" cy="282.7167384709274" fill="black" r="2" /><circle cx="181.4860974290175" cy="268.3582448641998" fill="black" r="2" /><circle cx="288.15232064386186" cy="190.11285255175403" fill="black" r="2" /><circle cx="262.3436375285726" cy="320.00424710375233" fill="black" r="2" /><circle cx="193.54439433704036" cy="206.6800901521206" fill="black" r="2" /><circle cx="320.96613028946007" cy="243.79126810537167" fill="black" r="2" /><circle cx="201.82122801476962" cy="302.57790343856607" fill="black" r="2" /><circle cx="249.99999999998863" cy="178.61008474581303" fill="black" r="2" /><circle cx="298.2818282997523" cy="302.6903696706831" fill="black" r="2" /><circle cx="178.72994484973853" cy="243.76467812549438" fill="black" r="2" /><circle cx="306.8186679619881" cy="206.4015026517502" fill="black" r="2" /><circle cx="237.5504065578353" cy="320.605152950226" fill="black" r="2" /><circle cx="211.43786823630364" cy="189.46957794761943" fill="black" r="2" /><circle cx="319.3979894909758" cy="268.59513524044416" fill="black" r="2" /><circle cx="186.2045553697789" cy="283.2098064497882" fill="black" r="2" /><circle cx="274.62459525424055" cy="182.34448057575176" fill="black" r="2" /><circle cx="277.58117666021735" cy="316.5868507592744" fill="black" r="2" /><circle cx="184.6111650233207" cy="219.50868549254392" fill="black" r="2" /><circle cx="318.8812782987667" cy="228.28181637595225" fill="black" r="2" /><circle cx="213.85031120465976" cy="312.61309767133434" fill="black" r="2" /><circle cx="234.33525863919715" cy="179.34091793619768" fill="black" r="2" /><circle cx="309.3474384110782" cy="291.5555237488746" fill="black" r="2" /><circle cx="178.09549987684068" cy="259.4664070289936" fill="black" r="2" /><circle cx="296.6663804632448" cy="194.38517342956393" fill="black" r="2" /><circle cx="253.1700372887232" cy="322.6057908405941" fill="black" r="2" /><circle cx="198.55809101519583" cy="198.55809101521285" fill="black" r="2" /><circle cx="322.75533948687456" cy="253.17656672362298" fill="black" r="2" /><circle cx="194.1558329655753" cy="296.8588199620016" fill="black" r="2" /><circle cx="259.5250231124956" cy="177.65026651945135" fill="black" r="2" /><circle cx="291.8989636697679" cy="309.8379214495245" fill="black" r="2" /><circle cx="178.61019444554057" cy="234.1732611414583" fill="black" r="2" /><circle cx="313.39092995058184" cy="213.40122952884312" fill="black" r="2" /><circle cx="227.9667174576415" cy="319.880644390336" fill="black" r="2" /><circle cx="219.0025710124673" cy="183.5257990182442" fill="black" r="2" /><circle cx="317.83157251356636" cy="278.09675729219987" fill="black" r="2" /><circle cx="180.9377704644562" cy="275.13659586300145" fill="black" r="2" /><circle cx="283.9701710787778" cy="184.74390850749205" fill="black" r="2" /><circle cx="269.06008538396736" cy="321.1332070495621" fill="black" r="2" /><circle cx="187.82820526030744" cy="210.39219851032456" fill="black" r="2" /><circle cx="322.66920365663606" cy="237.18645872873734" fill="black" r="2" /><circle cx="205.03444785163532" cy="308.60024846357476" fill="black" r="2" /><circle cx="243.55590689127393" cy="176.3436787233705" fill="black" r="2" /><circle cx="304.56684156783" cy="300.0012979962654" fill="black" r="2" /><circle cx="175.91518374187598" cy="250.0000000000127" fill="black" r="2" /><circle cx="304.6752167323236" cy="199.8993944620083" fill="black" r="2" /><circle cx="243.53028415359577" cy="323.94919050852945" fill="black" r="2" /><circle cx="204.76599440902436" cy="191.04989619860214" fill="black" r="2" /><circle cx="323.2482502907155" cy="262.91564281593054" fill="black" r="2" /><circle cx="187.20833155978673" cy="290.002704589744" fill="black" r="2" /><circle cx="269.2883580161851" cy="178.01486788899066" fill="black" r="2" /><circle cx="284.4453014412547" cy="316.1688084267889" fill="black" r="2" /><circle cx="179.83270462455408" cy="224.46119306437896" fill="black" r="2" /><circle cx="319.053861335091" cy="221.3969541007601" fill="black" r="2" /><circle cx="218.3813182889959" cy="317.80648174664583" fill="black" r="2" /><circle cx="227.4804681175119" cy="178.57716972988538" fill="black" r="2" /><circle cx="314.91864139059066" cy="287.4807950822802" fill="black" r="2" /><circle cx="176.74441775185983" cy="266.2403715932232" fill="black" r="2" /><circle cx="293.07944713605923" cy="188.47617344108482" fill="black" r="2" /><circle cx="259.81285287617334" cy="324.53601759170243" fill="black" r="2" /><circle cx="192.35394679385234" cy="201.62921801589317" fill="black" r="2" /><circle cx="325.2522089264364" cy="246.7144176023177" fill="black" r="2" /><circle cx="196.6868684093779" cy="303.3131315906411" fill="black" r="2" /><circle cx="253.2918826573372" cy="174.60349140331283" fill="black" r="2" /><circle cx="298.556467050694" cy="307.8673440513289" fill="black" r="2" /><circle cx="175.03437644376174" cy="240.13058842562677" fill="black" r="2" /><circle cx="311.9970937374814" cy="206.58916761790965" fill="black" r="2" /><circle cx="233.6033170890719" cy="323.96065703817453" fill="black" r="2" /><circle cx="212.08588653284218" cy="184.33082915096702" fill="black" r="2" /><circle cx="322.3871165617899" cy="272.82357018237593" fill="black" r="2" /><circle cx="181.14625192908125" cy="282.107030018151" fill="black" r="2" /><circle cx="279.10052747096694" cy="179.74511190734486" fill="black" r="2" /><circle cx="276.03283349617817" cy="321.5246221951592" fill="black" r="2" /><circle cx="182.42182356757323" cy="214.82102801291947" fill="black" r="2" /><circle cx="323.6594287569871" cy="230.2630155496251" fill="black" r="2" /><circle cx="208.9883393755018" cy="314.3754121759308" fill="black" r="2" /><circle cx="236.73318831128137" cy="174.76017206548065" fill="black" r="2" /><circle cx="310.6691258319567" cy="296.55305758794157" fill="black" r="2" /><circle cx="173.74833982298148" cy="256.6711558405188" fill="black" r="2" /><circle cx="301.7596902291526" cy="193.51421004020426" fill="black" r="2" /><circle cx="250.0000000000141" cy="326.68507025490686" fill="black" r="2" /><circle cx="198.14436957687104" cy="193.4095096909396" fill="black" r="2" /><circle cx="326.53459866369104" cy="256.695909750567" fill="black" r="2" /><circle cx="188.99288199384844" cy="296.81240810494046" fill="black" r="2" /><circle cx="263.36545105195495" cy="174.20076043799781" fill="black" r="2" /><circle cx="291.3931726596063" cy="314.97426611491676" fill="black" r="2" /><circle cx="175.5175353207928" cy="230.0424837389356" fill="black" r="2" /><circle cx="318.4599420221386" cy="214.36200990059314" fill="black" r="2" /><circle cx="223.57859526908763" cy="322.59221288847255" fill="black" r="2" /><circle cx="220.41035377930422" cy="178.56427478821217" fill="black" r="2" /><circle cx="320.1408454048641" cy="282.70721336174876" fill="black" r="2" /><circle cx="176.1230017697318" cy="273.29332806803154" fill="black" r="2" /><circle cx="288.76622241075097" cy="182.85493316705845" fill="black" r="2" /><circle cx="266.79628581178287" cy="325.76314924109806" fill="black" r="2" /><circle cx="186.3741874476542" cy="205.4487264261306" fill="black" r="2" /><circle cx="327.07774451097885" cy="239.85252242671757" fill="black" r="2" /><circle cx="199.98286259722914" cy="309.6081031910288" fill="black" r="2" /><circle cx="246.6028001277486" cy="172.1913306049514" fill="black" r="2" /><circle cx="305.1208671920277" cy="305.12086719200676" fill="black" r="2" /><circle cx="172.051763372798" cy="246.59670649080553" fill="black" r="2" /><circle cx="309.82213656616597" cy="199.8032672710764" fill="black" r="2" /><circle cx="239.7978186472124" cy="327.4932609692277" fill="black" r="2" /><circle cx="205.1282095341476" cy="185.91644188726227" fill="black" r="2" /><circle cx="326.445099528573" cy="266.9474705506918" fill="black" r="2" /><circle cx="182.1290194560342" cy="289.185328887233" fill="black" r="2" /><circle cx="273.5873943484284" cy="175.19034268323557" fill="black" r="2" /><circle cx="283.17954413996335" cy="321.1537620274868" fill="black" r="2" /><circle cx="177.4026421130921" cy="219.92918977080578" fill="black" r="2" /><circle cx="323.90501750152276" cy="223.10077346651738" fill="black" r="2" /><circle cx="213.65240562273547" cy="319.8230791571515" fill="black" r="2" /><circle cx="229.60857396981373" cy="173.89816201657516" fill="black" r="2" /><circle cx="316.5060547956914" cy="292.36902967395514" fill="black" r="2" /><circle cx="172.27451991050486" cy="263.705099228298" fill="black" r="2" /><circle cx="298.08818421987974" cy="187.33025819077514" fill="black" r="2" /><circle cx="256.89074049018296" cy="328.76152420755295" fill="black" r="2" /><circle cx="191.65834476057725" cy="196.53972256035013" fill="black" r="2" /><circle cx="329.2" cy="249.99999999998448" fill="black" r="2" /><circle cx="191.55696908858033" cy="303.5531711282053" fill="black" r="2" /><circle cx="256.9147083555463" cy="170.9645218376093" fill="black" r="2" /><circle cx="298.3392991608545" cy="312.9970011717813" fill="black" r="2" /><circle cx="171.73287238115677" cy="236.1993936982571" fill="black" r="2" /><circle cx="317.0858918762981" cy="207.26157336586152" fill="black" r="2" /><circle cx="229.39504536135146" cy="326.898737599126" fill="black" r="2" /><circle cx="213.20796437716515" cy="179.32315715364717" fill="black" r="2" /><circle cx="324.93870431082706" cy="277.2754577636091" fill="black" r="2" /><circle cx="176.25930629711186" cy="280.5443954305341" fill="black" r="2" /><circle cx="283.7606661462733" cy="177.60001780829032" fill="black" r="2" /><circle cx="274.0422326077155" cy="326.2522199757915" fill="black" r="2" /><circle cx="180.69999999999806" cy="209.9896263451623" fill="black" r="2" /><circle cx="328.19033978276195" cy="232.66561899991146" fill="black" r="2" /><circle cx="204.02399333827503" cy="315.660542271908" fill="black" r="2" /><circle cx="239.52858554773434" cy="170.46171060823045" fill="black" r="2" /><circle cx="311.5075969439441" cy="301.61100191026435" fill="black" r="2" /><circle cx="169.71623378448226" cy="253.50526493322414" fill="black" r="2" /><circle cx="306.87117020072793" cy="193.12882979927497" fill="black" r="2" /><circle cx="246.48882897172865" cy="330.4190380321117" fill="black" r="2" /><circle cx="198.21493013548346" cy="188.28495694624252" fill="black" r="2" /><circle cx="329.9410174823541" cy="260.5244346112254" fill="black" r="2" /><circle cx="183.89580036878743" cy="296.2866588891096" fill="black" r="2" /><circle cx="267.48091260923195" cy="171.14869884175408" fill="black" r="2" /><circle cx="290.4165807559314" cy="320.00357133746303" fill="black" r="2" /><circle cx="172.84382713241087" cy="225.67275214031187" fill="black" r="2" /><circle cx="323.3817216881349" cy="215.78154120821466" fill="black" r="2" /><circle cx="218.98925095079176" cy="324.8665709339424" fill="black" r="2" /><circle cx="222.26142836482921" cy="173.78890078446253" fill="black" r="2" /><circle cx="321.9980196674846" cy="287.47979674385255" fill="black" r="2" /><circle cx="171.53173861932956" cy="271.02550726842946" fill="black" r="2" /><circle cx="293.6842425119854" cy="181.42947458161018" fill="black" r="2" /><circle cx="264.1297982056033" cy="330.13406767829105" fill="black" r="2" /><circle cx="185.39156210171905" cy="200.42420194949986" fill="black" r="2" /><circle cx="331.1938403528395" cy="242.8964594209924" fill="black" r="2" /><circle cx="194.89158870706922" cy="310.1402777244101" fill="black" r="2" /><circle cx="250.00000000000156" cy="168.36250861277034" fill="black" r="2" /><circle cx="305.19853140431866" cy="310.23862656806216" fill="black" r="2" /><circle cx="168.54038531822522" cy="242.87320718016986" fill="black" r="2" /><circle cx="314.9259259915352" cy="200.18058476716442" fill="black" r="2" /><circle cx="235.77754638716638" cy="330.6595426048945" fill="black" r="2" /><circle cx="205.95739018296817" cy="180.866950591597" fill="black" r="2" /><circle cx="329.24136636876676" cy="271.23266012563835" fill="black" r="2" /><circle cx="177.17370963874708" cy="287.9109671759833" fill="black" r="2" /><circle cx="278.10356853629384" cy="172.7860800404109" fill="black" r="2" /><circle cx="281.47019257914855" cy="325.975765735077" fill="black" r="2" /><circle cx="175.40927236840548" cy="215.21777247804158" fill="black" r="2" /><circle cx="328.55565692525226" cy="225.2314965118589" fill="black" r="2" /><circle cx="208.78301321057492" cy="321.3899152541895" fill="black" r="2" /><circle cx="232.14373185009345" cy="169.4555794126084" fill="black" r="2" /><circle cx="317.63408608043585" cy="297.35789691344195" fill="black" r="2" /><circle cx="168.07503274435788" cy="260.78562655398235" fill="black" r="2" /><circle cx="303.15709738496787" cy="186.64983821958276" fill="black" r="2" /><circle cx="253.61009660980946" cy="332.6848063580477" fill="black" r="2" /><circle cx="191.43081014731456" cy="191.43081014731305" fill="black" r="2" /><circle cx="332.8161564112352" cy="253.615831476966" fill="black" r="2" /><circle cx="186.44840635426" cy="303.32611878888935" fill="black" r="2" /><circle cx="260.8371095508327" cy="167.6839805591691" fill="black" r="2" /><circle cx="297.6595426186848" cy="318.06488079309156" fill="black" r="2" /><circle cx="168.8137810539045" cy="232.00144857949283" fill="black" r="2" /><circle cx="322.0730879038713" cy="208.38858329735885" fill="black" r="2" /><circle cx="224.9547448664398" cy="329.43340100546413" fill="black" r="2" /><circle cx="214.77325313296086" cy="174.45599755661902" fill="black" r="2" /><circle cx="327.0689984017911" cy="281.92302437653314" fill="black" r="2" /><circle cx="171.55057887160285" cy="278.5532541861588" fill="black" r="2" /><circle cx="288.5787857624737" cy="175.89084207000354" fill="black" r="2" /><circle cx="271.6410179114803" cy="330.76537837313083" fill="black" r="2" /><circle cx="179.42536866677523" cy="205.03900121016653" fill="black" r="2" /><circle cx="332.4723429411057" cy="235.45790077723814" fill="black" r="2" /><circle cx="198.97994469698367" cy="316.49063059467215" fill="black" r="2" /><circle cx="242.68985136866766" cy="166.44461880292909" fill="black" r="2" /><circle cx="311.88664858806544" cy="306.70866535669217" fill="black" r="2" /><circle cx="165.99571439503816" cy="249.99999999999943" fill="black" r="2" /><circle cx="311.9822264806591" cy="193.203753640753" fill="black" r="2" /><circle cx="242.66725425564871" cy="333.81366738097495" fill="black" r="2" /><circle cx="198.74319142864238" cy="183.20082653895184" fill="black" r="2" /><circle cx="332.98301248302147" cy="264.63214404120936" fill="black" r="2" /><circle cx="178.87869410527523" cy="295.30926889532634" fill="black" r="2" /><circle cx="271.8423340410538" cy="168.48329960284812" fill="black" r="2" /><circle cx="288.99780736355603" cy="324.9140909364518" fill="black" r="2" /><circle cx="170.57601453423467" cy="221.09203340368094" fill="black" r="2" /><circle cx="328.1469388413867" cy="217.6304780739572" fill="black" r="2" /><circle cx="214.22537038432915" cy="326.7189407894919" fill="black" r="2" /><circle cx="224.52592334704508" cy="169.20655089254217" fill="black" r="2" /><circle cx="323.42036502225017" cy="292.38926750958956" fill="black" r="2" /><circle cx="167.16837475834794" cy="268.36332921412964" fill="black" r="2" /><circle cx="298.70059149096033" cy="180.44834733501582" fill="black" r="2" /><circle cx="261.09094043320147" cy="334.2440564093822" fill="black" r="2" /><circle cx="184.85937125425176" cy="195.34052244478917" fill="black" r="2" /><circle cx="335.01806447566173" cy="246.28803114072528" fill="black" r="2" /><circle cx="189.7806509500476" cy="310.2193490499523" fill="black" r="2" /><circle cx="253.71754657669052" cy="164.85418479191043" fill="black" r="2" /><circle cx="304.8238673325827" cy="315.336540853487" fill="black" r="2" /><circle cx="165.3756073164926" cy="238.85898734640625" fill="black" r="2" /><circle cx="319.9706423142758" cy="201.00602879815028" fill="black" r="2" /><circle cx="231.49828654362867" cy="333.4558362199932" fill="black" r="2" /><circle cx="207.22711139049682" cy="175.91518374188252" fill="black" r="2" /><circle cx="331.6471394417248" cy="275.7432441814069" fill="black" r="2" /><circle cx="172.3539084537013" cy="286.2069671138553" fill="black" r="2" /><circle cx="282.8099438295234" cy="170.78978862606465" fill="black" r="2" /><circle cx="279.34532829735076" cy="330.6256268634279" fill="black" r="2" /><circle cx="173.8382002435156" cy="210.35267653607406" fill="black" r="2" /><circle cx="332.998943628246" cy="227.76050008216816" fill="black" r="2" /><circle cx="203.79751326483765" cy="322.5233770551754" fill="black" r="2" /><circle cx="235.0569714489253" cy="165.2538738482887" fill="black" r="2" /><circle cx="318.3209899379268" cy="302.4245394247933" fill="black" r="2" /><circle cx="164.14801258716682" cy="257.5110756397958" fill="black" r="2" /><circle cx="308.2649848351801" cy="186.41492673467903" fill="black" r="2" /><circle cx="250.00000000000045" cy="336.3061990821053" fill="black" r="2" /><circle cx="191.64977007922755" cy="186.3218980481281" fill="black" r="2" /><circle cx="336.1033846930199" cy="257.53307005183274" fill="black" r="2" /><circle cx="181.37869657096218" cy="302.65497807140287" fill="black" r="2" /><circle cx="265.03067169876954" cy="164.7568248580345" fill="black" r="2" /><circle cx="296.5414677052913" cy="323.05547059486594" fill="black" r="2" /><circle cx="166.2697740162555" cy="227.5645535655945" fill="black" r="2" /><circle cx="326.9452628424156" cy="209.94483146819158" fill="black" r="2" /><circle cx="220.30942066928253" cy="331.57419628170646" fill="black" r="2" /><circle cx="216.75546844257775" cy="169.74060103933277" fill="black" r="2" /><circle cx="328.7896890659712" cy="286.740235395103" fill="black" r="2" /><circle cx="167.02909183092663" cy="276.16062685791746" fill="black" r="2" /><circle cx="293.5299896622942" cy="174.6038462519436" fill="black" r="2" /><circle cx="268.85676025757476" cy="335.0573488452841" fill="black" r="2" /><circle cx="178.582248866788" cy="199.9927522945464" fill="black" r="2" /><circle cx="336.5009931779764" cy="238.61192820431486" fill="black" r="2" /><circle cx="193.87834668488262" cy="316.8831819606228" fill="black" r="2" /><circle cx="246.18888099211088" cy="162.71102376641306" fill="black" r="2" /><circle cx="311.82548018414485" cy="311.82548018414343" fill="black" r="2" /><circle cx="162.58659180554685" cy="246.1834481753934" fill="black" r="2" /><circle cx="317.0740045508481" cy="193.71822751980167" fill="black" r="2" /><circle cx="238.56315679576218" cy="336.8714488052414" fill="black" r="2" /><circle cx="199.70699426726281" cy="178.17414410975067" fill="black" r="2" /><circle cx="335.6653433518672" cy="268.9915493945781" fill="black" r="2" /><circle cx="173.95665709610802" cy="293.9036444956578" fill="black" r="2" /><circle cx="276.42280146505954" cy="166.19758020953066" fill="black" r="2" /><circle cx="287.161340669211" cy="329.69275224050705" fill="black" r="2" /><circle cx="168.70495305892388" cy="216.32648900325026" fill="black" r="2" /><circle cx="332.7446175824192" cy="219.88342215424868" fill="black" r="2" /><circle cx="209.3121909560008" cy="328.1605539591363" fill="black" r="2" /><circle cx="227.17770701823588" cy="164.82604304686484" fill="black" r="2" /><circle cx="324.42111159579457" cy="297.41147697389624" fill="black" r="2" /><circle cx="163.03952366018123" cy="265.3334782339761" fill="black" r="2" /><circle cx="303.7923658587402" cy="179.89642394770834" fill="black" r="2" /><circle cx="257.7067659573455" cy="338.088737977557" fill="black" r="2" /><circle cx="184.7607034767405" cy="190.21919882478807" fill="black" r="2" /><circle cx="338.5482919089917" cy="249.99999999999844" fill="black" r="2" /><circle cx="184.67003033150672" cy="309.8638878048674" fill="black" r="2" /><circle cx="257.72820345621454" cy="161.66623028909413" fill="black" r="2" /><circle cx="304.0169696158443" cy="320.396285367347" fill="black" r="2" /><circle cx="162.55506043337715" cy="234.58109782800088" fill="black" r="2" /><circle cx="324.939731888389" cy="202.25812546101304" fill="black" r="2" /><circle cx="226.98672215738983" cy="335.88672215737904" fill="black" r="2" /><circle cx="208.91467326333972" cy="171.07582165811374" fill="black" r="2" /><circle cx="333.66916714505203" cy="280.4530863666287" fill="black" r="2" /><circle cx="167.68233365324505" cy="284.0970938237312" fill="black" r="2" /><circle cx="287.6811049418235" cy="169.1926096797868" fill="black" r="2" /><circle cx="276.8296144936287" cy="335.09266587740257" fill="black" r="2" /><circle cx="172.67852820851977" cy="205.35842744706088" fill="black" r="2" /><circle cx="337.226297898072" cy="230.66239531387615" fill="black" r="2" /><circle cx="198.71937954178222" cy="323.236315891914" fill="black" r="2" /><circle cx="238.32235474273438" cy="161.29947801029886" fill="black" r="2" /><circle cx="318.58147377363775" cy="307.54668934904805" fill="black" r="2" /><circle cx="160.49771256203763" cy="253.90775426202353" fill="black" r="2" /><circle cx="313.3909299505837" cy="186.60907004941328" fill="black" r="2" /><circle cx="246.08694708572048" cy="339.62364652752115" fill="black" r="2" /><circle cx="192.29714567088877" cy="181.23241605034121" fill="black" r="2" /><circle cx="339.06182907391303" cy="261.7252122372733" fill="black" r="2" /><circle cx="176.36565772099678" cy="301.55932153489414" fill="black" r="2" /><circle cx="269.46906510317643" cy="162.18072248072025" fill="black" r="2" /><circle cx="295.0059996000672" cy="327.95267795270894" fill="black" r="2" /><circle cx="164.09635778117647" cy="222.9146856481163" fill="black" r="2" /><circle cx="331.6881508354638" cy="211.90818968488742" fill="black" r="2" /><circle cx="215.48452127523126" cy="333.3277368491431" fill="black" r="2" /><circle cx="219.13143622714023" cy="165.18931806310664" fill="black" r="2" /><circle cx="330.10945417522623" cy="291.70234228130755" fill="black" r="2" /><circle cx="162.70520495067143" cy="273.3905698369176" fill="black" r="2" /><circle cx="298.5903953182079" cy="173.72835728253733" fill="black" r="2" /><circle cx="265.7142294505779" cy="339.1198237923224" fill="black" r="2" /><circle cx="178.1580548388297" cy="194.87373660895014" fill="black" r="2" /><circle cx="340.2700823873787" cy="242.10239113554823" fill="black" r="2" /><circle cx="188.74087887949526" cy="316.85259964685986" fill="black" r="2" /><circle cx="249.9999999999973" cy="159.26500123987438" fill="black" r="2" /><circle cx="311.34020536663127" cy="316.941087573922" fill="black" r="2" /><circle cx="159.49079114761403" cy="242.0814702807165" fill="black" r="2" /><circle cx="322.12760014544926" cy="194.65454583022935" fill="black" r="2" /><circle cx="234.20240535197954" cy="339.5926113211175" fill="black" r="2" /><circle cx="201.08716985462735" cy="173.22223598482486" fill="black" r="2" /><circle cx="337.9903821027545" cy="273.5769518261217" fill="black" r="2" /><circle cx="169.14532555259836" cy="292.0902794004114" fill="black" r="2" /><circle cx="281.19696199172387" cy="164.2870513721122" fill="black" r="2" /><circle cx="284.92885248582064" cy="334.32570938938954" fill="black" r="2" /><circle cx="167.22407622011002" cy="211.4009528305964" fill="black" r="2" /><circle cx="337.16279005312265" cy="222.51767786093652" fill="black" r="2" /><circle cx="204.27385868019033" cy="329.200000000005" fill="black" r="2" /><circle cx="230.1932207923158" cy="160.6573925978313" fill="black" r="2" /><circle cx="325.0108042478884" cy="302.5231305815349" fill="black" r="2" /><circle cx="159.1531872781736" cy="261.9602097927001" fill="black" r="2" /><circle cx="308.9372797069007" cy="179.76128517156263" fill="black" r="2" /><circle cx="254.00205680274945" cy="341.6621707213372" fill="black" r="2" /><circle cx="185.08135860940786" cy="185.08135860941252" fill="black" r="2" /><circle cx="341.7806739003915" cy="254.00723076325713" fill="black" r="2" /><circle cx="179.57955468715397" cy="309.0897696893503" fill="black" r="2" /><circle cx="262.00665738413" cy="158.80038279433342" fill="black" r="2" /><circle cx="302.7952729763193" cy="325.3994638665019" fill="black" r="2" /><circle cx="160.07836769484632" cy="230.0648540618148" fill="black" r="2" /><circle cx="329.8163517081469" cy="203.91800785554736" fill="black" r="2" /><circle cx="222.26799556795868" cy="337.9546811157953" fill="black" r="2" /><circle cx="210.9999130022523" cy="166.36404353289123" fill="black" r="2" /><circle cx="335.3120085313217" cy="285.3373909669587" fill="black" r="2" /><circle cx="163.1724018393865" cy="281.602661243304" fill="black" r="2" /><circle cx="292.6927733778647" cy="167.9879453902886" fill="black" r="2" /><circle cx="273.945364011557" cy="339.3653150968206" fill="black" r="2" /><circle cx="171.9216732089701" cy="200.25861998784976" fill="black" r="2" /><circle cx="341.22807429898427" cy="233.914029103004" fill="black" r="2" /><circle cx="193.57136182541495" cy="323.5392330240244" fill="black" r="2" /><circle cx="241.91605232386823" cy="157.60005524909894" fill="black" r="2" /><circle cx="318.42787698180393" cy="312.70259685023507" fill="black" r="2" /><circle cx="157.1297679554961" cy="250.00000000000392" fill="black" r="2" /><circle cx="318.514330430011" cy="187.21818316003223" fill="black" r="2" /><circle cx="241.895612474116" cy="342.63357330271947" fill="black" r="2" /><circle cx="193.3572106262648" cy="176.18167969966623" fill="black" r="2" /><circle cx="341.6899915523137" cy="266.1674193715833" fill="black" r="2" /><circle cx="171.42718867931345" cy="300.0564014004582" fill="black" r="2" /><circle cx="274.1274606571298" cy="159.95509096990185" fill="black" r="2" /><circle cx="293.0717908491308" cy="332.7401403978065" fill="black" r="2" /><circle cx="162.29088078068946" cy="218.07649133048227" fill="black" r="2" /><circle cx="336.28703457224543" cy="214.25874002321524" fill="black" r="2" /><circle cx="210.50433928727148" cy="334.69871772857624" fill="black" r="2" /><circle cx="221.8801165288013" cy="160.81512373969338" fill="black" r="2" /><circle cx="331.03499244154295" cy="296.78557469989096" fill="black" r="2" /><circle cx="158.59006645975018" cy="270.26509437844066" fill="black" r="2" /><circle cx="303.7369189439638" cy="173.25572632169963" fill="black" r="2" /><circle cx="262.2362509706308" cy="342.9435536343631" fill="black" r="2" /><circle cx="178.14225458214716" cy="189.70419232265772" fill="black" r="2" /><circle cx="343.7723180158595" cy="245.90581217669435" fill="black" r="2" /><circle cx="183.58878106825944" cy="316.41121893174693" fill="black" r="2" /><circle cx="254.09924550009342" cy="156.11184214007625" fill="black" r="2" /><circle cx="310.444870470159" cy="322.0353915367002" fill="black" r="2" /><circle cx="156.71157114127533" cy="237.71834534475667" fill="black" r="2" /><circle cx="327.12419814721216" cy="195.9970550789167" fill="black" r="2" /><circle cx="229.6094239619927" cy="341.97594472925107" fill="black" r="2" /><circle cx="202.8665723716007" cy="168.36250861277983" fill="black" r="2" /><circle cx="339.95896905758116" cy="278.3639539926498" fill="black" r="2" /><circle cx="164.46057960554833" cy="289.8876868040911" fill="black" r="2" /><circle cx="286.1406160587146" cy="162.7488345585196" fill="black" r="2" /><circle cx="282.3200892003557" cy="338.7987152726944" fill="black" r="2" /><circle cx="166.12849378746134" cy="206.33925738560913" fill="black" r="2" /><circle cx="341.38893719703594" cy="225.51240808090307" fill="black" r="2" /><circle cx="199.1336726915875" cy="329.84414033699306" fill="black" r="2" /><circle cx="233.55068657443118" cy="156.71130782443458" fill="black" r="2" /><circle cx="325.1982214083747" cy="307.70162473463864" fill="black" r="2" /><circle cx="155.51819325544736" cy="258.26608699960303" fill="black" r="2" /><circle cx="314.1135818923692" cy="180.0323030468312" fill="black" r="2" /><circle cx="250.00000000000517" cy="344.9574641615918" fill="black" r="2" /><circle cx="185.80893943052482" cy="179.94774990790114" fill="black" r="2" /><circle cx="344.7102999603304" cy="258.28607756566583" fill="black" r="2" /><circle cx="174.52882589237456" cy="307.91106870725565" fill="black" r="2" /><circle cx="266.5289715835597" cy="156.25954396105237" fill="black" r="2" /><circle cx="301.17442417358023" cy="330.3277555425426" fill="black" r="2" /><circle cx="157.94640722987197" cy="225.33431415688128" fill="black" r="2" /><circle cx="334.58358756935144" cy="205.96857129392856" fill="black" r="2" /><circle cx="217.36611616689677" cy="339.66085894060757" fill="black" r="2" /><circle cx="213.46439279989968" cy="161.7952415879961" fill="black" r="2" /><circle cx="336.5788196507432" cy="290.3723666371453" fill="black" r="2" /><circle cx="158.83787882410994" cy="278.7433063984006" fill="black" r="2" /><circle cx="297.821543262414" cy="167.1706573731201" fill="black" r="2" /><circle cx="270.71327105387724" cy="343.43152788137746" fill="black" r="2" /><circle cx="171.56055628126433" cy="195.07611021517783" fill="black" r="2" /><circle cx="344.9940258261164" cy="237.4937992440898" fill="black" r="2" /><circle cx="188.37560622872923" cy="323.4410926683649" fill="black" r="2" /><circle cx="245.81570923422188" cy="154.16398531456235" fill="black" r="2" /><circle cx="317.87098054397444" cy="317.8709805439662" fill="black" r="2" /><circle cx="154.05063694296913" cy="245.81076033747445" fill="black" r="2" /><circle cx="323.6149179829187" cy="188.2297494713827" fill="black" r="2" /><circle cx="237.44937210329957" cy="345.33148346374645" fill="black" r="2" /><circle cx="194.8158059617333" cy="171.18880328058123" fill="black" r="2" /><circle cx="343.9853651440118" cy="270.8360538189641" fill="black" r="2" /><circle cx="166.58111724556437" cy="298.16191441379505" fill="black" r="2" /><circle cx="278.982127292101" cy="158.08043571891534" fill="black" r="2" /><circle cx="290.7559606846735" cy="337.40143974025455" fill="black" r="2" /><circle cx="160.85184835261663" cy="213.07362652716708" fill="black" r="2" /><circle cx="340.72701838935564" cy="216.9780658625586" fill="black" r="2" /><circle cx="205.39228774545018" cy="335.69061796611857" fill="black" r="2" /><circle cx="224.98192936402813" cy="156.63128927925843" fill="black" r="2" /><circle cx="331.5717376167636" cy="301.9669281580303" fill="black" r="2" /><circle cx="154.69523288233125" cy="266.80480183301563" fill="black" r="2" /><circle cx="308.9471270529436" cy="173.17860836847512" fill="black" r="2" /><circle cx="258.4442985818586" cy="346.5187744506758" fill="black" r="2" /><circle cx="178.5256487569008" cy="184.50582381327266" fill="black" r="2" /><circle cx="346.99979381421383" cy="249.9999999999715" fill="black" r="2" /><circle cx="178.44287588465292" cy="315.5700235499486" fill="black" r="2" /><circle cx="258.4638682455929" cy="153.25754326914557" fill="black" r="2" /><circle cx="309.15216115742163" cy="327.0885972787573" fill="black" r="2" /><circle cx="154.25298100767628" cy="233.1172172292717" fill="black" r="2" /><circle cx="332.0451701330966" cy="197.73146206529933" fill="black" r="2" /><circle cx="224.8075852990909" cy="344.0193716291351" fill="black" r="2" /><circle cx="205.0294067100932" cy="163.61229405086746" fill="black" r="2" /><circle cx="341.5710088276187" cy="283.32912153496056" fill="black" r="2" /><circle cx="159.91833439723672" cy="287.31304761382984" fill="black" r="2" /><circle cx="291.2304348829217" cy="161.58104705796868" fill="black" r="2" /><circle cx="279.35349176830795" cy="343.09738192348846" fill="black" r="2" /><circle cx="165.4143629213493" cy="201.16445966308154" fill="black" r="2" /><circle cx="345.41029742466736" cy="228.84804629977376" fill="black" r="2" /><circle cx="193.91425421198" cy="330.0987460538653" fill="black" r="2" /><circle cx="237.22955455444105" cy="152.99883648573075" fill="black" r="2" /><circle cx="324.9910168494186" cy="312.9249345799439" fill="black" r="2" /><circle cx="152.1438004237466" cy="254.27249394293995" fill="black" r="2" /><circle cx="319.2999999999792" cy="180.6999999999792" fill="black" r="2" /><circle cx="245.7226592104302" cy="347.9672106154395" fill="black" r="2" /><circle cx="186.93221634953383" cy="174.8387422576099" fill="black" r="2" /><circle cx="347.3316624735611" cy="262.81395645898544" fill="black" r="2" /><circle cx="169.5371668604725" cy="306.3406823100373" fill="black" r="2" /><circle cx="271.27220454799584" cy="154.0472860536596" fill="black" r="2" /><circle cx="299.1688926049793" cy="335.16302014372206" fill="black" r="2" /><circle cx="156.16079454008928" cy="220.41261216915788" fill="black" r="2" /><circle cx="339.2246092505871" cy="208.39388141054198" fill="black" r="2" /><circle cx="212.3042444483885" cy="341.00560429662096" fill="black" r="2" /><circle cx="216.2908305881412" cy="157.38481821233302" fill="black" r="2" /><circle cx="337.47190669277194" cy="295.5349924731629" fill="black" r="2" /><circle cx="154.6926317575432" cy="275.53753235331754" fill="black" r="2" /><circle cx="303.0446980433988" cy="166.73650253871963" fill="black" r="2" /><circle cx="267.1529244480071" cy="347.2790685753156" fill="black" r="2" /><circle cx="171.58903188057604" cy="189.83314800843672" fill="black" r="2" /><circle cx="348.51363274798996" cy="241.3811739317844" fill="black" r="2" /><circle cx="183.1537372347221" cy="322.9498948204548" fill="black" r="2" /><circle cx="249.99999999996967" cy="151.0" fill="black" r="2" /><circle cx="316.9205776995955" cy="323.0309953400089" fill="black" r="2" /><circle cx="151.26720428314246" cy="241.36199965655948" fill="black" r="2" /><circle cx="328.67277508533266" cy="189.63225645783447" fill="black" r="2" /><circle cx="232.77067016517842" cy="347.71238505656754" fill="black" r="2" /><circle cx="196.65978603187853" cy="166.27263545390304" fill="black" r="2" /><circle cx="345.9448828296085" cy="275.7083538720918" fill="black" r="2" /><circle cx="161.8450898009242" cy="295.89054159402434" fill="black" r="2" /><circle cx="284.0101501106929" cy="156.55788053854872" fill="black" r="2" /><circle cx="288.07461688558203" cy="341.92025646731054" fill="black" r="2" /><circle cx="159.7784367979806" cy="207.9289941481783" fill="black" r="2" /><circle cx="344.99322452011654" cy="220.04875135706814" fill="black" r="2" /><circle cx="200.17109272722675" cy="336.30619908211327" fill="black" r="2" /><circle cx="228.4182787312586" cy="152.65114634943893" fill="black" r="2" /><circle cx="331.7243654480858" cy="307.2240167421662" fill="black" r="2" /><circle cx="151.03239669674156" cy="263.0293321551363" fill="black" r="2" /><circle cx="314.1991345432615" cy="173.49045076661207" fill="black" r="2" /><circle cx="254.3589126823698" cy="349.8355141231189" fill="black" r="2" /><circle cx="179.2998585574037" cy="179.29985855744786" fill="black" r="2" /><circle cx="349.94432670487026" cy="254.36366354227235" fill="black" r="2" /><circle cx="173.3235813225205" cy="314.3391546322756" fill="black" r="2" /><circle cx="263.0719814742665" cy="150.70844295542327" fill="black" r="2" /><circle cx="307.4739044668627" cy="332.0812421039907" fill="black" r="2" /><circle cx="152.11947197688795" cy="228.30040936061744" fill="black" r="2" /><circle cx="336.87214743518143" cy="199.84434229321585" fill="black" r="2" /><circle cx="219.81948749721118" cy="345.72035658661645" fill="black" r="2" /><circle cx="207.56075075087398" cy="158.98873628407" fill="black" r="2" /><circle cx="342.8258966271883" cy="288.44974532241474" fill="black" r="2" /><circle cx="155.53438758308545" cy="284.3826710814806" fill="black" r="2" /><circle cx="296.44376262187717" cy="160.78236209401908" fill="black" r="2" /><circle cx="276.0466362328613" cy="347.2073697872388" fill="black" r="2" /><circle cx="165.07843830244775" cy="195.8989985411654" fill="black" r="2" /><circle cx="349.21409038240176" cy="232.50587899914325" fill="black" r="2" /><circle cx="188.63766326684194" cy="329.96895416751755" fill="black" r="2" /><circle cx="241.21011109008035" cy="149.53111002429023" fill="black" r="2" /><circle cx="324.396178819943" cy="318.1715378804899" fill="black" r="2" /><circle cx="149.03941363086287" cy="250.00000000003214" fill="black" r="2" /><circle cx="324.4757044212782" cy="181.75559033184916" fill="black" r="2" /><circle cx="241.1913091672031" cy="350.68379693780025" fill="black" r="2" /><circle cx="188.44067291505075" cy="169.7743230078534" fill="black" r="2" /><circle cx="349.6389920712241" cy="267.56904263272594" fill="black" r="2" /><circle cx="164.6235793353852" cy="304.3907785796336" fill="black" r="2" /><circle cx="276.2141404429519" cy="152.16749599015066" fill="black" r="2" /><circle cx="296.79240702015187" cy="339.88737756359586" fill="black" r="2" /><circle cx="154.7235090844103" cy="215.32219328141485" fill="black" r="2" /><circle cx="343.72278602487347" cy="211.17875092509547" fill="black" r="2" /><circle cx="207.10489181581218" cy="341.98885635698934" fill="black" r="2" /><circle cx="219.4626931189187" cy="153.1480362178925" fill="black" r="2" /><circle cx="337.993124731433" cy="300.8028542505091" fill="black" r="2" /><circle cx="150.7504470564566" cy="272.0030961572861" fill="black" r="2" /><circle cx="308.3400831642614" cy="166.68172651580528" fill="black" r="2" /><circle cx="263.28317416658166" cy="350.89572480566386" fill="black" r="2" /><circle cx="172.00147668267914" cy="184.55146785207978" fill="black" r="2" /><circle cx="351.7763428550437" cy="245.55634890516922" fill="black" r="2" /><circle cx="177.92691209614628" cy="322.0730879039005" fill="black" r="2" /><circle cx="254.44831145382105" cy="148.11691737481732" fill="black" r="2" /><circle cx="315.5858849373076" cy="328.1622139974953" fill="black" r="2" /><circle cx="148.7864925970568" cy="236.67498896081665" fill="black" r="2" /><circle cx="333.6683518053775" cy="191.41478935625832" fill="black" r="2" /><circle cx="227.8812798403303" cy="349.77109911441397" fill="black" r="2" /><circle cx="198.87661983006" cy="161.45170809100952" fill="black" r="2" /><circle cx="347.56524406155444" cy="280.7622032892528" fill="black" r="2" /><circle cx="157.236486965935" cy="293.2563365251711" fill="black" r="2" /><circle cx="289.18923122632356" cy="155.38882647440767" fill="black" r="2" /><circle cx="285.0432310005395" cy="346.28048587872223" fill="black" r="2" /><circle cx="159.07014040164555" cy="202.66491118183527" fill="black" r="2" /><circle cx="349.0709394353497" cy="223.45402178488658" fill="black" r="2" /><circle cx="194.8629278326979" cy="336.5478669455101" fill="black" r="2" /><circle cx="232.1712108637127" cy="148.88791230553193" fill="black" r="2" /><circle cx="331.4971615448522" cy="312.5349714970133" fill="black" r="2" /><circle cx="147.61318508373898" cy="258.95768559971305" fill="black" r="2" /><circle cx="319.471535957524" cy="174.1851222272142" fill="black" r="2" /><circle cx="250.00000000003402" cy="352.8838179695913" fill="black" r="2" /><circle cx="180.45695446515725" cy="174.1070832176099" fill="black" r="2" /><circle cx="352.5977045628102" cy="258.97613605301973" fill="black" r="2" /><circle cx="168.25091463466316" cy="312.7282794434127" fill="black" r="2" /><circle cx="267.9023102281244" cy="148.47095347391473" fill="black" r="2" /><circle cx="305.4214323419423" cy="336.9942230103098" fill="black" r="2" /><circle cx="150.3156123533525" cy="223.28964883209298" fill="black" r="2" /><circle cx="341.587079319704" cy="202.32278424985114" fill="black" r="2" /><circle cx="214.66715059507334" cy="347.0762059050969" fill="black" r="2" /><circle cx="210.44620993523242" cy="154.50870358240866" fill="black" r="2" /><circle cx="343.7228303089363" cy="293.70367351702066" fill="black" r="2" /><circle cx="151.3243035384495" cy="281.1123275861506" fill="black" r="2" /><circle cx="301.7584775664654" cy="160.35168713243007" fill="black" r="2" /><circle cx="272.41655165479114" cy="351.1145301720187" fill="black" r="2" /><circle cx="165.11774340368976" cy="190.564804071004" fill="black" r="2" /><circle cx="352.78768440104767" cy="236.46774462734987" fill="black" r="2" /><circle cx="183.32547829544706" cy="329.45960077592326" fill="black" r="2" /><circle cx="245.47319645526136" cy="146.3191529275183" fill="black" r="2" /><circle cx="323.42036502227177" cy="323.4203650222223" fill="black" r="2" /><circle cx="146.21437185269934" cy="245.46862161475858" fill="black" r="2" /><circle cx="329.6202876958904" cy="183.19064596013789" fill="black" r="2" /><circle cx="236.42667547263582" cy="353.0996356020469" fill="black" r="2" /><circle cx="190.32417476333396" cy="164.77408913761678" fill="black" r="2" /><circle cx="351.6265057497955" cy="272.53005390776445" fill="black" r="2" /><circle cx="159.8067075664733" cy="302.07312166559956" fill="black" r="2" /><circle cx="281.3330969980248" cy="150.62411241899588" fill="black" r="2" /><circle cx="294.0582730293445" cy="344.4832714170701" fill="black" r="2" /><circle cx="153.63661884752042" cy="210.08498061052777" fill="black" r="2" /><circle cx="348.06177641050016" cy="214.3084322673118" fill="black" r="2" /></svg>