<?xml version="1.0" encoding="utf-8" ?>
<svg baseProfile="full" height="508" version="1.1" width="305" xmlns="http://www.w3.org/2000/svg" xmlns:ev="http://www.w3.org/2001/xml-events" xmlns:xlink="http://www.w3.org/1999/xlink"><defs /><circle cx="118.10634572891455" cy="123.7844627563315" fill="black" r="2" /><circle cx="131.60058211567804" cy="120.7949654300837" fill="black" r="2" /><circle cx="122.78108891324554" cy="133.28108891324553" fill="black" r="2" /><circle cx="120.72414800402905" cy="116.78616473816578" fill="black" r="2" /><circle cx="134.30248234144145" cy="128.38582667707163" fill="black" r="2" /><circle cx="115.2992649086315" cy="129.01817603983346" fill="black" r="2" /><circle cx="129.67752700758632" cy="114.96901096136075" fill="black" r="2" /><circle cx="128.49064908233828" cy="136.07092448641805" fill="black" r="2" /><circle cx="114.49999999999999" cy="118.93782217350895" fill="black" r="2" /><circle cx="137.32029859795585" cy="122.26865555866584" fill="black" r="2" /><circle cx="117.48855721516671" cy="135.72745204091706" fill="black" r="2" /><circle cx="123.23065980950754" cy="111.56052697125709" fill="black" r="2" /><circle cx="135.72462220366572" cy="133.99902653561153" fill="black" r="2" /><circle cx="110.58286530066383" cy="125.6294656950121" fill="black" r="2" /><circle cx="135.49999999999994" cy="114.49999999999994" fill="black" r="2" /><circle cx="124.33453624473373" cy="140.24162583159773" fill="black" r="2" /><circle cx="114.93878246752404" cy="113.00950785979998" fill="black" r="2" /><circle cx="140.9017989361717" cy="127.09351154607953" fill="black" r="2" /><circle cx="111.55242719621366" cy="134.41609184783508" fill="black" r="2" /><circle cx="128.63302773196293" cy="108.6124709153946" fill="black" r="2" /><circle cx="133.57321409974116" cy="139.84924240491748" fill="black" r="2" /><circle cx="108.309953361906" cy="119.7376485086753" fill="black" r="2" /><circle cx="141.17448381997335" cy="117.45771432804217" fill="black" r="2" /><circle cx="118.04031494525273" cy="141.80216604901665" fill="black" r="2" /><circle cx="118.66569830169934" cy="107.5966491159057" fill="black" r="2" /><circle cx="141.71844832832443" cy="133.70307333607764" fill="black" r="2" /><circle cx="106.48292226226313" cy="129.96163602601092" fill="black" r="2" /><circle cx="135.47045164030587" cy="108.56468307430562" fill="black" r="2" /><circle cx="128.43805851113132" cy="144.49819872896052" fill="black" r="2" /><circle cx="109.04886212549872" cy="112.76026141992197" fill="black" r="2" /><circle cx="145.33067176865515" cy="123.22129669837595" fill="black" r="2" /><circle cx="111.01104050872738" cy="140.2662704139398" fill="black" r="2" /><circle cx="124.99999999999974" cy="104.0" fill="black" r="2" /><circle cx="139.38309180252327" cy="140.69639035575338" fill="black" r="2" /><circle cx="103.50665208689927" cy="123.11957571638516" fill="black" r="2" /><circle cx="142.34071507749502" cy="111.6940013301843" fill="black" r="2" /><circle cx="121.15613372924454" cy="146.79964889837788" fill="black" r="2" /><circle cx="112.95861349260932" cy="106.09880927085202" fill="black" r="2" /><circle cx="146.90970184926186" cy="130.87068691691618" fill="black" r="2" /><circle cx="104.64218346865383" cy="135.59760850739676" fill="black" r="2" /><circle cx="132.94046740308374" cy="103.18374511011194" fill="black" r="2" /><circle cx="133.9849147706285" cy="146.6915030960176" fill="black" r="2" /><circle cx="103.48592532714494" cy="114.96782222192927" fill="black" r="2" /><circle cx="147.88423900307134" cy="117.78462715791429" fill="black" r="2" /><circle cx="112.87564434701801" cy="146.00000000000009" fill="black" r="2" /><circle cx="119.69722945851628" cy="101.08074782556167" fill="black" r="2" /><circle cx="145.27297878688506" cy="139.19529256854213" fill="black" r="2" /><circle cx="100.21883618578325" cy="128.26250210926435" fill="black" r="2" /><circle cx="141.22322580170396" cy="105.66591236735164" fill="black" r="2" /><circle cx="126.11143876662965" cy="150.45613293232168" fill="black" r="2" /><circle cx="106.81346652052645" cy="106.81346652052713" fill="black" r="2" /><circle cx="150.93198968300845" cy="126.1322151210538" fill="black" r="2" /><circle cx="104.93606905564711" cy="141.8356370553727" fill="black" r="2" /><circle cx="128.44907899254673" cy="98.80164405724716" fill="black" r="2" /><circle cx="140.2887979934184" cy="146.83466637978344" fill="black" r="2" /><circle cx="98.7532482668736" cy="119.18123522905192" fill="black" r="2" /><circle cx="148.47871376374778" cy="111.44455828827401" fill="black" r="2" /><circle cx="116.7799441940752" cy="151.0706862692082" fill="black" r="2" /><circle cx="113.35305167773379" cy="100.02303872008326" fill="black" r="2" /><circle cx="150.66573258627875" cy="135.6310945254771" fill="black" r="2" /><circle cx="98.68860661799465" cy="134.57656401311897" fill="black" r="2" /><circle cx="138.02957717187098" cy="99.9704151308445" fill="black" r="2" /><circle cx="132.35929551792466" cy="152.4652647808073" fill="black" r="2" /><circle cx="100.83790221934693" cy="109.60704606522322" fill="black" r="2" /><circle cx="153.4232647061756" cy="119.9882115524821" fill="black" r="2" /><circle cx="107.3013672544023" cy="148.06530725866136" fill="black" r="2" /><circle cx="122.44780958860456" cy="95.82833011115096" fill="black" r="2" /><circle cx="146.7434324251576" cy="144.92418496131285" fill="black" r="2" /><circle cx="95.301515190165" cy="125.00000000000072" fill="black" r="2" /><circle cx="147.04755114465178" cy="104.79714157541156" fill="black" r="2" /><circle cx="122.37590283197883" cy="154.99356787800983" fill="black" r="2" /><circle cx="106.5478998172012" cy="100.95275485956954" fill="black" r="2" /><circle cx="155.04874231936907" cy="130.2984040072609" fill="black" r="2" /><circle cx="99.09744534426304" cy="141.5017472501114" fill="black" r="2" /><circle cx="133.0003976989885" cy="95.14210930661679" fill="black" r="2" /><circle cx="139.3643900622566" cy="152.59373657443558" fill="black" r="2" /><circle cx="95.58296790754875" cy="114.29307593789451" fill="black" r="2" /><circle cx="154.10220527410553" cy="112.9454718804997" fill="black" r="2" /><circle cx="111.60560105734774" cy="153.72438122858483" fill="black" r="2" /><circle cx="115.41153925363484" cy="94.58928773416488" fill="black" r="2" /><circle cx="152.7803887661785" cy="141.0390149323449" fill="black" r="2" /><circle cx="93.49648445608089" cy="131.984161250576" fill="black" r="2" /><circle cx="143.6169516705389" cy="98.41223758010429" fill="black" r="2" /><circle cx="129.261135449175" cy="157.36653711294713" fill="black" r="2" /><circle cx="99.84853149888711" cy="103.89541205714913" fill="black" r="2" /><circle cx="157.9875072534628" cy="123.55973432911195" fill="black" r="2" /><circle cx="101.52128623625225" cy="148.47871376374783" fill="black" r="2" /><circle cx="126.45635852423486" cy="91.64390580645137" fill="black" r="2" /><circle cx="146.57890756930692" cy="150.7167406199796" fill="black" r="2" /><circle cx="91.53598202845455" cy="120.5943784547373" fill="black" r="2" /><circle cx="152.79690805682787" cy="105.53639543968649" fill="black" r="2" /><circle cx="117.61642658206499" cy="158.30514740369668" fill="black" r="2" /><circle cx="107.85357180051734" cy="95.30151519016525" fill="black" r="2" /><circle cx="157.87557920878655" cy="135.36563030822543" fill="black" r="2" /><circle cx="93.59803727926662" cy="139.64297569777642" fill="black" r="2" /><circle cx="138.32678226572352" cy="92.82630151129658" fill="black" r="2" /><circle cx="136.9707050163991" cy="157.88924172750654" fill="black" r="2" /><circle cx="93.79978008190207" cy="108.75819354067028" fill="black" r="2" /><circle cx="159.14380428444247" cy="115.85119521545641" fill="black" r="2" /><circle cx="105.91451587922587" cy="154.9582091566849" fill="black" r="2" /><circle cx="118.80195187503445" cy="89.84912235177319" fill="black" r="2" /><circle cx="153.45308416290894" cy="146.832819369436" fill="black" r="2" /><circle cx="89.10241744012313" cy="128.1406315219753" fill="black" r="2" /><circle cx="149.4592580651328" cy="98.30740374367386" fill="black" r="2" /><circle cx="125.00000000000134" cy="161.37306695894642" fill="black" r="2" /><circle cx="100.31320905325832" cy="98.0590951757022" fill="black" r="2" /><circle cx="161.5686234850586" cy="128.19933999569005" fill="black" r="2" /><circle cx="95.74526366057837" cy="147.44794871944703" fill="black" r="2" /><circle cx="131.43201851216807" cy="88.52221034849936" fill="black" r="2" /><circle cx="144.99050613648285" cy="156.3788091617136" fill="black" r="2" /><circle cx="88.90357028468746" cy="115.327990808136" fill="black" r="2" /><circle cx="158.2924601427224" cy="107.66904221789112" fill="black" r="2" /><circle cx="112.1071561258204" cy="160.42279741686178" fill="black" r="2" /><circle cx="110.51226025453829" cy="90.02350221837855" fill="black" r="2" /><circle cx="159.4575789181564" cy="141.0678329310154" fill="black" r="2" /><circle cx="88.58661720903802" cy="136.48109549297774" fill="black" r="2" /><circle cx="144.1702895126807" cy="91.79608456823196" fill="black" r="2" /><circle cx="133.3329251366166" cy="162.5873962741175" fill="black" r="2" /><circle cx="93.33259480001313" cy="102.8262441634295" fill="black" r="2" /><circle cx="163.48479400205383" cy="119.93338075049229" fill="black" r="2" /><circle cx="99.94777037743046" cy="154.85608465519297" fill="black" r="2" /><circle cx="123.29312148249879" cy="85.90605461549714" fill="black" r="2" /><circle cx="152.78038876617939" cy="152.780388766177" fill="black" r="2" /><circle cx="85.59454414959623" cy="123.27952064183283" fill="black" r="2" /><circle cx="155.33381234350284" cy="99.54690925036499" fill="black" r="2" /><circle cx="119.81127602359237" cy="164.41227148359573" fill="black" r="2" /><circle cx="102.11077849998111" cy="92.31080393886884" fill="black" r="2" /><circle cx="164.10976490115428" cy="133.67042613580452" fill="black" r="2" /><circle cx="90.17543970126883" cy="145.105969262884" fill="black" r="2" /><circle cx="137.1376795937719" cy="86.5041984876411" fill="black" r="2" /><circle cx="142.1225602451787" cy="161.71944894262748" fill="black" r="2" /><circle cx="87.42921454515917" cy="109.43767111559714" fill="black" r="2" /><circle cx="163.3551172742057" cy="111.03987898039823" fill="black" r="2" /><circle cx="106.08379866762624" cy="161.33768466968007" fill="black" r="2" /><circle cx="114.35847626271449" cy="85.2852927425017" fill="black" r="2" /><circle cx="159.80203474783454" cy="147.17134135343454" fill="black" r="2" /><circle cx="84.21659133515331" cy="132.1912153128736" fill="black" r="2" /><circle cx="150.30024510105164" cy="92.02807864520611" fill="black" r="2" /><circle cx="128.63503188674284" cy="166.5486045876677" fill="black" r="2" /><circle cx="94.14205878255788" cy="96.72390649646088" fill="black" r="2" /><circle cx="167.0" cy="124.99999999999794" fill="black" r="2" /><circle cx="93.92701826300382" cy="153.4731418352858" fill="black" r="2" /><circle cx="128.68587396268853" cy="82.87026782507186" fill="black" r="2" /><circle cx="150.8329402559182" cy="158.66614319660275" fill="black" r="2" /><circle cx="83.0675381030111" cy="117.6061756000312" fill="black" r="2" /><circle cx="161.03216606202065" cy="102.04497856940736" fill="black" r="2" /><circle cx="113.90544456622901" cy="166.40544456622803" fill="black" r="2" /><circle cx="105.14078316171918" cy="86.85079939801957" fill="black" r="2" /><circle cx="165.548580450415" cy="139.75847632569915" fill="black" r="2" /><circle cx="85.00284457215176" cy="141.56736423455916" fill="black" r="2" /><circle cx="143.3559414676315" cy="85.63555649019173" fill="black" r="2" /><circle cx="138.1031495432651" cy="166.5578809860035" fill="black" r="2" /><circle cx="87.14171160762777" cy="103.14250700560618" fill="black" r="2" /><circle cx="167.81533867329694" cy="115.50806793688008" fill="black" r="2" /><circle cx="99.76589596802577" cy="161.0380353751908" fill="black" r="2" /><circle cx="119.23944569309937" cy="81.2442459317949" fill="black" r="2" /><circle cx="158.91423320839846" cy="153.45742057682608" fill="black" r="2" /><circle cx="80.63224710833643" cy="126.93713792598237" fill="black" r="2" /><circle cx="156.50000000000006" cy="93.50000000000006" fill="black" r="2" /><circle cx="123.05086729732271" cy="169.64247844494471" fill="black" r="2" /><circle cx="96.18905753826111" cy="90.66445581519974" fill="black" r="2" /><circle cx="169.57368941644162" cy="130.86823753835858" fill="black" r="2" /><circle cx="88.06087466213685" cy="150.86505401644538" fill="black" r="2" /><circle cx="134.78955679971483" cy="80.84216289643301" fill="black" r="2" /><circle cx="147.68259244442902" cy="164.28740256112553" fill="black" r="2" /><circle cx="81.60587874095532" cy="111.3178861225567" fill="black" r="2" /><circle cx="166.35882733572225" cy="105.71406208104172" fill="black" r="2" /><circle cx="107.48517670500962" cy="167.28452394133416" fill="black" r="2" /><circle cx="109.3005675524808" cy="81.86616385219394" fill="black" r="2" /><circle cx="165.83382092541103" cy="146.25674172189764" fill="black" r="2" /><circle cx="80.40497141963868" cy="136.94920189455166" fill="black" r="2" /><circle cx="149.8773200063164" cy="85.95042958874797" fill="black" r="2" /><circle cx="133.06296191190236" cy="170.72732930324284" fill="black" r="2" /><circle cx="88.05792104832409" cy="96.653345828332" fill="black" r="2" /><circle cx="171.51813251541327" cy="120.93019075650331" fill="black" r="2" /><circle cx="93.36426668235744" cy="159.5243447071049" fill="black" r="2" /><circle cx="124.99999999999979" cy="78.04257247250442" fill="black" r="2" /><circle cx="156.8119783210112" cy="159.71668237754747" fill="black" r="2" /><circle cx="77.96209568156365" cy="120.88471661612145" fill="black" r="2" /><circle cx="162.56299771289872" cy="96.17689810549939" fill="black" r="2" /><circle cx="116.75582530666216" cy="171.75503805608255" fill="black" r="2" /><circle cx="99.4217732795045" cy="84.85022642859701" fill="black" r="2" /><circle cx="171.10715173659582" cy="137.3543740731179" fill="black" r="2" /><circle cx="82.54608250366617" cy="147.1001106154354" fill="black" r="2" /><circle cx="141.41340378314223" cy="79.9045437294229" fill="black" r="2" /><circle cx="143.41359585819498" cy="169.4543528529104" fill="black" r="2" /><circle cx="81.2759324768063" cy="104.61113246825128" fill="black" r="2" /><circle cx="171.13220673035846" cy="110.45457108960107" fill="black" r="2" /><circle cx="100.75128869403687" cy="167.00000000000065" fill="black" r="2" /><circle cx="114.47593675193296" cy="77.52901841387009" fill="black" r="2" /><circle cx="164.93313705817178" cy="152.9614835924932" fill="black" r="2" /><circle cx="76.54329087965242" cy="131.37944678056203" fill="black" r="2" /><circle cx="156.4965928746391" cy="87.46382228716897" fill="black" r="2" /><circle cx="127.14279546738655" cy="174.0780850032369" fill="black" r="2" /><circle cx="90.17543970126793" cy="90.17543970126866" fill="black" r="2" /><circle cx="174.32658322483513" cy="127.15364513404877" fill="black" r="2" /><circle cx="87.08273457062224" cy="156.81636343704469" fill="black" r="2" /><circle cx="131.4768485477006" cy="75.80345100629366" fill="black" r="2" /><circle cx="153.5321849438552" cy="165.74818305556263" fill="black" r="2" /><circle cx="76.31473072163716" cy="114.20673565165296" fill="black" r="2" /><circle cx="168.29260906898418" cy="100.00500050009784" fill="black" r="2" /><circle cx="109.93091859503109" cy="172.7930202603939" fill="black" r="2" /><circle cx="103.77000392185484" cy="79.47212648802999" fill="black" r="2" /><circle cx="171.52309115049127" cy="144.27049531805247" fill="black" r="2" /><circle cx="77.56646101613877" cy="142.26439629603414" fill="black" r="2" /><circle cx="148.36397792363323" cy="80.11821599374665" fill="black" r="2" /><circle cx="138.12725502084533" cy="173.99158270170184" fill="black" r="2" /><circle cx="82.1216106177344" cy="97.6834532932361" fill="black" r="2" /><circle cx="175.18656063221005" cy="116.15075529157963" fill="black" r="2" /><circle cx="93.9039680460193" cy="165.52513783711305" fill="black" r="2" /><circle cx="120.53757490379489" cy="73.99424775321161" fill="black" r="2" /><circle cx="162.83712751691183" cy="159.6713394790128" fill="black" r="2" /><circle cx="73.56071540155327" cy="125.00000000000378" fill="black" r="2" /><circle cx="163.01270677785678" cy="90.16777177066214" fill="black" r="2" /><circle cx="120.49606307876914" cy="176.4802345780356" fill="black" r="2" /><circle cx="93.4690373858377" cy="83.90804949111933" fill="black" r="2" /><circle cx="176.12470837578473" cy="134.0146654675016" fill="black" r="2" /><circle cx="81.11729674975885" cy="152.9563652045697" fill="black" r="2" /><circle cx="138.49710921657336" cy="74.62810264844205" fill="black" r="2" /><circle cx="149.13382035648286" cy="171.3606375603379" fill="black" r="2" /><circle cx="75.77589029795263" cy="107.08388926019919" fill="black" r="2" /><circle cx="173.50367545684102" cy="104.90911980082907" fill="black" r="2" /><circle cx="102.76329045719058" cy="172.68677750392374" fill="black" r="2" /><circle cx="109.14293607183927" cy="74.70781846471338" fill="black" r="2" /><circle cx="170.7684389071781" cy="151.4244205234458" fill="black" r="2" /><circle cx="73.29086193145113" cy="136.46363991966564" fill="black" r="2" /><circle cx="155.44551072144995" cy="81.51930454891416" fill="black" r="2" /><circle cx="131.943392292623" cy="177.74030056295416" fill="black" r="2" /><circle cx="84.16185532538627" cy="90.73272786556656" fill="black" r="2" /><circle cx="178.3743323940842" cy="122.66962632056311" fill="black" r="2" /><circle cx="87.14171160763112" cy="162.8582883923749" fill="black" r="2" /><circle cx="127.34035391216305" cy="71.397082695381" fill="black" r="2" /><circle cx="159.561417204487" cy="166.1886931185901" fill="black" r="2" /><circle cx="71.57915128354004" cy="117.96701184324193" fill="black" r="2" /><circle cx="169.23041785844794" cy="94.02952799734739" fill="black" r="2" /><circle cx="113.28873669275166" cy="177.8260949886351" fill="black" r="2" /><circle cx="97.8891165765478" cy="78.04257247250457" fill="black" r="2" /><circle cx="176.81983993969953" cy="141.3387327728904" fill="black" r="2" /><circle cx="75.65405858170385" cy="148.0103903822183" fill="black" r="2" /><circle cx="145.8790551642381" cy="74.59350185294855" fill="black" r="2" /><circle cx="143.69883899494357" cy="176.3746379086138" fill="black" r="2" /><circle cx="76.4062952657504" cy="99.70371845111285" fill="black" r="2" /><circle cx="178.0248411327383" cy="110.79203663969159" fill="black" r="2" /><circle cx="95.4448583615482" cy="171.3922795595458" fill="black" r="2" /><circle cx="115.42885017219837" cy="70.71931198875816" fill="black" r="2" /><circle cx="168.81616592265928" cy="158.6213266222199" fill="black" r="2" /><circle cx="69.87072581831006" cy="129.8231865193101" fill="black" r="2" /><circle cx="162.46176637577796" cy="84.11765588904382" fill="black" r="2" /><circle cx="125.00000000000476" cy="180.5607775323564" fill="black" r="2" /><circle cx="87.38927969122517" cy="83.95510119570139" fill="black" r="2" /><circle cx="180.56855821189512" cy="129.8616188920178" fill="black" r="2" /><circle cx="80.65907087047734" cy="159.02399159314862" fill="black" r="2" /><circle cx="134.7242979493461" cy="69.85076583131598" fill="black" r="2" /><circle cx="155.14748793411303" cy="172.32207699649825" fill="black" r="2" /><circle cx="70.69726853711336" cy="110.4496269577161" fill="black" r="2" /><circle cx="174.96280936072742" cy="98.99100769380696" fill="black" r="2" /><circle cx="105.69781814578846" cy="178.0323087906509" fill="black" r="2" /><circle cx="103.36145980141322" cy="72.75994278262951" fill="black" r="2" /><circle cx="176.34455586179183" cy="148.94235960291587" fill="black" r="2" /><circle cx="70.8665856485672" cy="142.06819998289478" fill="black" r="2" /><circle cx="153.43413441622332" cy="75.7506345218525" fill="black" r="2" /><circle cx="137.33183575815832" cy="180.6253164200781" fill="black" r="2" /><circle cx="78.24012063196238" cy="92.2583799807253" fill="black" r="2" /><circle cx="181.70119882478213" cy="117.53514555851706" fill="black" r="2" /><circle cx="88.16989660128925" cy="168.89240804103" fill="black" r="2" /><circle cx="122.49606099184005" cy="67.65036800952063" fill="black" r="2" /><circle cx="165.6663251351816" cy="165.66632513517413" fill="black" r="2" /><circle cx="67.43756715969121" cy="122.48676990608881" fill="black" r="2" /><circle cx="169.21875014055558" cy="87.89606306593444" fill="black" r="2" /><circle cx="117.45173677483727" cy="182.3347514364862" fill="black" r="2" /><circle cx="91.76967206806663" cy="77.54217340062687" fill="black" r="2" /><circle cx="181.66513194893224" cy="137.5623573110344" fill="black" r="2" /><circle cx="74.64376900521697" cy="154.07318352021417" fill="black" r="2" /><circle cx="142.51659678299922" cy="69.44445268794644" fill="black" r="2" /><circle cx="149.66259105621768" cy="177.88909719775685" fill="black" r="2" /><circle cx="70.98859286502164" cy="102.62774264184301" fill="black" r="2" /><circle cx="180.03422771284124" cy="104.96917924669249" fill="black" r="2" /><circle cx="97.90888972402372" cy="177.04153863996424" fill="black" r="2" /><circle cx="109.78791200020757" cy="68.22771469557905" fill="black" r="2" /><circle cx="174.65814061606545" cy="156.6357245934888" fill="black" r="2" /><circle cx="66.91303662733739" cy="135.2422988700268" fill="black" r="2" /><circle cx="160.96976514230863" cy="78.12328941140217" fill="black" r="2" /><circle cx="130.15878073393995" cy="183.96513360740505" fill="black" r="2" /><circle cx="81.28405438192459" cy="84.94171622850685" fill="black" r="2" /><circle cx="184.39696961967" cy="124.99999999999417" fill="black" r="2" /><circle cx="81.13199845980107" cy="165.19761735313554" fill="black" r="2" /><circle cx="130.1947308604027" cy="65.62395456677852" fill="black" r="2" /><circle cx="161.3464221689784" cy="172.36757958260475" fill="black" r="2" /><circle cx="66.10059208892116" cy="114.61444523752616" fill="black" r="2" /><circle cx="175.52787644435776" cy="92.81019257554162" fill="black" r="2" /><circle cx="109.46762239272016" cy="182.96762239271914" fill="black" r="2" /><circle cx="97.24222493483603" cy="71.67781021533568" fill="black" r="2" /><circle cx="181.58479102528088" cy="145.5951796453756" fill="black" r="2" /><circle cx="69.27351955016348" cy="148.08266398564058" fill="black" r="2" /><circle cx="150.5343281763863" cy="70.24145651516466" fill="black" r="2" /><circle cx="143.19891273923827" cy="182.7195770524143" fill="black" r="2" /><circle cx="72.49999999999804" cy="94.68911086754801" fill="black" r="2" /><circle cx="184.2833593335884" cy="111.85719565219671" fill="black" r="2" /><circle cx="90.11306491129943" cy="174.82370680827344" fill="black" r="2" /><circle cx="117.04780488570599" cy="64.59708125542112" fill="black" r="2" /><circle cx="171.74754439343184" cy="164.225847258971" fill="black" r="2" /><circle cx="63.93330514615482" cy="127.66622947762542" fill="black" r="2" /><circle cx="168.29260906898585" cy="81.70739093101497" fill="black" r="2" /><circle cx="122.32504307030862" cy="186.26658636993167" fill="black" r="2" /><circle cx="85.51693131440223" cy="77.9459110473025" fill="black" r="2" /><circle cx="185.99803576329663" cy="133.03054375615912" fill="black" r="2" /><circle cx="74.5206899102274" cy="160.34599344848837" fill="black" r="2" /><circle cx="138.3593395857914" cy="64.73991332704949" fill="black" r="2" /><circle cx="155.9111630321491" cy="178.5397048927233" fill="black" r="2" /><circle cx="65.94458650633649" cy="106.3798996487015" fill="black" r="2" /><circle cx="181.20935216073585" cy="98.78914862751726" fill="black" r="2" /><circle cx="101.22814996580571" cy="182.3903227552501" fill="black" r="2" /><circle cx="103.72040930037764" cy="66.53480505756826" fill="black" r="2" /><circle cx="180.2747261253311" cy="153.77420114911337" fill="black" r="2" /><circle cx="64.71276270867105" cy="141.1539165461196" fill="black" r="2" /><circle cx="158.58767249812325" cy="72.27791491074339" fill="black" r="2" /><circle cx="135.8720956241049" cy="186.6587182541149" fill="black" r="2" /><circle cx="75.25067241607863" cy="86.82599831105364" fill="black" r="2" /><circle cx="187.56626160222706" cy="119.52616139060649" fill="black" r="2" /><circle cx="82.50355006072193" cy="171.3767370839997" fill="black" r="2" /><circle cx="125.00000000000021" cy="62.0" fill="black" r="2" /><circle cx="167.627814858298" cy="171.52009673685845" fill="black" r="2" /><circle cx="62.04632750325692" cy="119.49226732921666" fill="black" r="2" /><circle cx="175.21212199219855" cy="86.47088367168834" fill="black" r="2" /><circle cx="113.99284210883545" cy="187.42469443384545" fill="black" r="2" /><circle cx="90.88993733060651" cy="71.45792659328508" fill="black" r="2" /><circle cx="186.4141990699168" cy="141.455885044586" fill="black" r="2" /><circle cx="68.51788311644896" cy="154.4027289949909" fill="black" r="2" /><circle cx="146.8116625894847" cy="65.0729495546254" fill="black" r="2" /><circle cx="149.44161065524094" cy="184.00726793012547" fill="black" r="2" /><circle cx="67.02817276886509" cy="97.96729300489044" fill="black" r="2" /><circle cx="186.09560214021354" cy="105.73663063935248" fill="black" r="2" /><circle cx="92.92197013531336" cy="180.56077753235886" fill="black" r="2" /><circle cx="111.09343899150164" cy="62.271557002290315" fill="black" r="2" /><circle cx="177.70974484590272" cy="161.9077606782074" fill="black" r="2" /><circle cx="61.109474586908256" cy="133.4113472428071" fill="black" r="2" /><circle cx="166.48346260871318" cy="75.56193440281574" fill="black" r="2" /><circle cx="127.81919291609024" cy="189.57013358590694" fill="black" r="2" /><circle cx="79.2315610928228" cy="79.23156109282306" fill="black" r="2" /><circle cx="189.75921198064052" cy="127.82744825708022" fill="black" r="2" /><circle cx="75.2719725874448" cy="166.7267694610565" fill="black" r="2" /><circle cx="133.4854574610227" cy="60.546551592043" fill="black" r="2" /><circle cx="162.3419845650622" cy="178.32988082438078" fill="black" r="2" /><circle cx="61.34767158325535" cy="110.88861852521585" fill="black" r="2" /><circle cx="181.5442304749109" cy="92.35417331418674" fill="black" r="2" /><circle cx="105.3382322430899" cy="187.35916042309526" fill="black" r="2" /><circle cx="97.32737703551504" cy="65.65586854401306" fill="black" r="2" /><circle cx="185.5810712285896" cy="150.09350132597189" fill="black" r="2" /><circle cx="63.29431290906376" cy="147.45903338604458" fill="black" r="2" /><circle cx="155.36414081699263" cy="66.67102818970798" fill="black" r="2" /><circle cx="142.04377945892782" cy="188.6082508936964" fill="black" r="2" /><circle cx="69.38250650314498" cy="89.56774891250501" fill="black" r="2" /><circle cx="190.03460432434093" cy="113.53264457791539" fill="black" r="2" /><circle cx="84.7422702390894" cy="177.4648948774082" fill="black" r="2" /><circle cx="119.22827585703317" cy="59.02889116880408" fill="black" r="2" /><circle cx="173.89294002035825" cy="169.80212513001644" fill="black" r="2" /><circle cx="58.59216913646404" cy="125.00000000000058" fill="black" r="2" /><circle cx="174.0289428978734" cy="80.07325119355876" fill="black" r="2" /><circle cx="119.19612115619164" cy="191.33863874369442" fill="black" r="2" /><circle cx="84.40537959783894" cy="72.09606069105581" fill="black" r="2" /><circle cx="190.76127050203863" cy="136.59548627517214" fill="black" r="2" /><circle cx="68.60460168237302" cy="160.9278311145579" fill="black" r="2" /><circle cx="142.33024959618658" cy="60.32262799916903" fill="black" r="2" /><circle cx="155.9604080744671" cy="184.47439055477975" fill="black" r="2" /><circle cx="61.90749509814779" cy="102.03620621043305" fill="black" r="2" /><circle cx="187.11501198445677" cy="99.27111960906981" fill="black" r="2" /><circle cx="96.54771398379593" cy="186.0161242660669" fill="black" r="2" /><circle cx="104.72799039663147" cy="60.70539970852191" fill="black" r="2" /><circle cx="183.46152580971824" cy="158.75277766347017" fill="black" r="2" /><circle cx="59.00607279485135" cy="139.63050142823346" fill="black" r="2" /><circle cx="163.82354126913782" cy="69.55423692180301" fill="black" r="2" /><circle cx="133.8467009524657" cy="192.19736514371408" fill="black" r="2" /><circle cx="73.01046496488817" cy="81.37560032696288" fill="black" r="2" /><circle cx="192.8930267570322" cy="122.03572643487328" fill="black" r="2" /><circle cx="76.8829552029644" cy="173.11704479703704" fill="black" r="2" /><circle cx="127.97212595918698" cy="56.92712385037102" fill="black" r="2" /><circle cx="168.85583047304766" cy="177.26534352244613" fill="black" r="2" /><circle cx="57.26718921841544" cy="116.08280629199622" fill="black" r="2" /><circle cx="181.03562822299654" cy="85.76343070993443" fill="black" r="2" /><circle cx="110.17467639188723" cy="191.87271326867733" fill="black" r="2" /><circle cx="90.70714360103224" cy="65.6030303803319" fill="black" r="2" /><circle cx="190.4964725343212" cy="145.65095846591402" fill="black" r="2" /><circle cx="62.67857024906048" cy="154.06095996003415" fill="black" r="2" /><circle cx="151.3489423610299" cy="61.38802599781137" fill="black" r="2" /><circle cx="148.57955429875142" cy="189.78429299662253" fill="black" r="2" /><circle cx="63.76894124170864" cy="93.12512834004393" fill="black" r="2" /><circle cx="191.76427325516133" cy="107.11056689802193" fill="black" r="2" /><circle cx="87.8145580850061" cy="183.36945185271674" fill="black" r="2" /><circle cx="112.96679521103587" cy="56.756304448638986" fill="black" r="2" /><circle cx="180.0466601524804" cy="167.2387879330992" fill="black" r="2" /><circle cx="55.791349457190876" cy="131.05497234042627" fill="black" r="2" /><circle cx="171.99481434041127" cy="73.71415960413367" fill="black" r="2" /><circle cx="125.00000000000146" cy="194.6491205974634" fill="black" r="2" /><circle cx="77.88636166627259" cy="73.5844859701011" fill="black" r="2" /><circle cx="194.55907633016415" cy="131.08563062421607" fill="black" r="2" /><circle cx="69.53472803772202" cy="167.56000007225725" fill="black" r="2" /><circle cx="137.15537243667922" cy="56.063457289144395" fill="black" r="2" /><circle cx="162.6579569531122" cy="184.11115189300196" fill="black" r="2" /><circle cx="57.216365909842324" cy="106.83742998549997" fill="black" r="2" /><circle cx="187.32316372006332" cy="92.55661448118917" fill="black" r="2" /><circle cx="100.93918069761602" cy="191.10655772688537" fill="black" r="2" /><circle cx="98.04525568811299" cy="59.92549071194777" fill="black" r="2" /><circle cx="188.9155856453498" cy="154.8043270618874" fill="black" r="2" /><circle cx="57.6581953582576" cy="146.23278944447486" fill="black" r="2" /><circle cx="160.34826728426108" cy="63.77500510412078" fill="black" r="2" /><circle cx="140.32027104851608" cy="194.1052768969201" fill="black" r="2" /><circle cx="66.94702346195378" cy="84.35086821255521" fill="black" r="2" /><circle cx="195.3489340854171" cy="115.73838712503917" fill="black" r="2" /><circle cx="79.33492774934825" cy="179.4215139107941" fill="black" r="2" /><circle cx="121.89742254896262" cy="53.93929346565493" fill="black" r="2" /><circle cx="175.35623099478494" cy="175.35623099478218" fill="black" r="2" /><circle cx="53.76744144555832" cy="121.88991932772834" fill="black" r="2" /><circle cx="179.6850578923965" cy="79.11378809157108" fill="black" r="2" /><circle cx="115.67102905303614" cy="195.8605694379512" fill="black" r="2" /><circle cx="83.95620719218437" cy="66.38338911239322" fill="black" r="2" /><circle cx="194.94498300061525" cy="140.50642940988175" fill="black" r="2" /><circle cx="62.88116227745644" cy="160.86432768086277" fill="black" r="2" /><circle cx="146.59488503778468" cy="56.50977485651792" fill="black" r="2" /><circle cx="155.3859297350416" cy="190.16283660290668" fill="black" r="2" /><circle cx="58.4951108435868" cy="97.45277294729662" fill="black" r="2" /><circle cx="192.72309368878481" cy="100.35080972485964" fill="black" r="2" /><circle cx="91.68282966511623" cy="189.00168873456653" fill="black" r="2" /><circle cx="106.30312284963789" cy="55.22230453200487" fill="black" r="2" /><circle cx="185.99737892975838" cy="163.85961610334653" fill="black" r="2" /><circle cx="53.69148574405497" cy="137.57361501755503" fill="black" r="2" /><circle cx="169.13100504874245" cy="67.48735449148711" fill="black" r="2" /><circle cx="131.32554981833627" cy="197.30136526716313" fill="black" r="2" /><circle cx="71.42803656401779" cy="75.91033985029244" fill="black" r="2" /><circle cx="197.74613391789285" cy="124.99999999998931" fill="black" r="2" /><circle cx="71.30388352744194" cy="174.2034254474775" fill="black" r="2" /><circle cx="131.35490287535418" cy="52.363127755630785" fill="black" r="2" /><circle cx="169.43854190570335" cy="182.91343534358023" fill="black" r="2" /><circle cx="53.028136443406254" cy="112.30941860311148" fill="black" r="2" /><circle cx="186.70750039364611" cy="85.68798663044382" fill="black" r="2" /><circle cx="106.04161536424844" cy="195.75365469007872" fill="black" r="2" /><circle cx="91.13852248192129" cy="59.952706894962574" fill="black" r="2" /><circle cx="193.9890554668334" cy="150.10996268006357" fill="black" r="2" /><circle cx="57.09485436042465" cy="153.12723227884428" fill="black" r="2" /><circle cx="156.0976404840627" cy="58.310894770405085" fill="black" r="2" /><circle cx="147.15193720259578" cy="195.25696889399836" fill="black" r="2" /><circle cx="61.13099343186872" cy="88.12521186501539" fill="black" r="2" /><circle cx="197.08245391245734" cy="109.01970469739487" fill="black" r="2" /><circle cx="82.60381534300247" cy="185.5480266113584" fill="black" r="2" /><circle cx="115.34128226165993" cy="51.63475501539523" fill="black" r="2" /><circle cx="181.7493665120395" cy="172.61837250980142" fill="black" r="2" /><circle cx="50.906917029391096" cy="128.23497386549926" fill="black" r="2" /><circle cx="177.49999999999196" cy="72.49999999999196" fill="black" r="2" /><circle cx="121.75782929832475" cy="199.2579176192088" fill="black" r="2" /><circle cx="77.1695178768831" cy="67.9978510942772" fill="black" r="2" /><circle cx="198.8559878802478" cy="134.72332526621886" fill="black" r="2" /><circle cx="63.91135528142477" cy="167.7747295309706" fill="black" r="2" /><circle cx="141.15885163005987" cy="52.11213054288311" fill="black" r="2" /><circle cx="162.3697738821147" cy="189.7263470311713" fill="black" r="2" /><circle cx="53.64151090465637" cy="102.50075481200035" fill="black" r="2" /><circle cx="192.88541774249407" cy="93.34450982961927" fill="black" r="2" /><circle cx="96.30448339825455" cy="194.27710535926678" fill="black" r="2" /><circle cx="99.32569803261657" cy="54.460435084361265" fill="black" r="2" /><circle cx="191.6572559073079" cy="159.6995711055291" fill="black" r="2" /><circle cx="52.33373969744281" cy="144.47086576506038" fill="black" r="2" /><circle cx="165.4645825010656" cy="61.48332846398155" fill="black" r="2" /><circle cx="138.0917367727285" cy="199.24692874640397" fill="black" r="2" /><circle cx="65.12284247867915" cy="79.05464107043096" fill="black" r="2" /><circle cx="200.26710788276068" cy="118.41498132387903" fill="black" r="2" /><circle cx="73.90130243990717" cy="180.76444304090342" fill="black" r="2" /><circle cx="124.99999999998795" cy="49.28342321525622" fill="black" r="2" /><circle cx="176.2079997118585" cy="180.88372540830022" fill="black" r="2" /><circle cx="49.41054756790449" cy="118.38677983006981" fill="black" r="2" /><circle cx="185.26222359604802" cy="78.75916947912901" fill="black" r="2" /><circle cx="111.79588574315864" cy="199.8842531290276" fill="black" r="2" /><circle cx="84.10076934153415" cy="60.80106752020242" fill="black" r="2" /><circle cx="198.60392824800465" cy="144.7221131338044" fill="black" r="2" /><circle cx="57.33816478612911" cy="160.22252199219957" fill="black" r="2" /><circle cx="151.1169949666188" cy="53.24414606519126" fill="black" r="2" /><circle cx="154.25276312447295" cy="195.6224174719577" fill="black" r="2" /><circle cx="55.64820532776437" cy="92.66072703754656" fill="black" r="2" /><circle cx="198.05590122596465" cy="101.96556282297963" fill="black" r="2" /><circle cx="86.65942097463915" cy="191.40783086353642" fill="black" r="2" /><circle cx="108.38588037490607" cy="50.05854932627027" fill="black" r="2" /><circle cx="187.94425286023449" cy="169.07404033971545" fill="black" r="2" /><circle cx="48.73765138452798" cy="135.04012866711443" fill="black" r="2" /><circle cx="174.49464594586573" cy="66.01457787984054" fill="black" r="2" /><circle cx="128.36216076076704" cy="202.00614180063016" fill="black" r="2" /><circle cx="70.44039956157134" cy="70.44039956158939" fill="black" r="2" /><circle cx="202.16475400123062" cy="128.36908591899407" fill="black" r="2" /><circle cx="65.771337993792" cy="174.6987484445471" fill="black" r="2" /><circle cx="135.10229724052562" cy="48.26543418729686" fill="black" r="2" /><circle cx="169.43829480126902" cy="188.4644621434351" fill="black" r="2" /><circle cx="49.28353956345212" cy="108.21406484700124" fill="black" r="2" /><circle cx="192.23280449304136" cy="86.18312222756089" fill="black" r="2" /><circle cx="101.63136700052884" cy="199.11583495944728" fill="black" r="2" /><circle cx="92.12393895261684" cy="54.49705956480442" fill="black" r="2" /><circle cx="196.94257690832796" cy="154.7995910674847" fill="black" r="2" /><circle cx="51.752180795635354" cy="151.66002591530454" fill="black" r="2" /><circle cx="161.0289693259765" cy="55.78899387158249" fill="black" r="2" /><circle cx="145.2152420739048" cy="200.44431050711134" fill="black" r="2" /><circle cx="59.06021770032608" cy="82.99172569276847" fill="black" r="2" /><circle cx="202.07339781764432" cy="111.40988046987292" fill="black" r="2" /><circle cx="77.30926287294653" cy="187.15177867348837" fill="black" r="2" /><circle cx="118.16535579377538" cy="46.87965925205958" fill="black" r="2" /><circle cx="182.87392287497127" cy="178.03167969300875" fill="black" r="2" /><circle cx="46.42519487774723" cy="125.00000000001347" fill="black" r="2" /><circle cx="182.98886623125227" cy="71.86299412637243" fill="black" r="2" /><circle cx="118.13818016290459" cy="203.43095963025854" fill="black" r="2" /><circle cx="77.0245395247228" cy="62.47716263488105" fill="black" r="2" /><circle cx="202.68753818712247" cy="138.69840904719908" fill="black" r="2" /><circle cx="58.402775896743506" cy="167.42711092851636" fill="black" r="2" /><circle cx="145.4573494111054" cy="48.65213260953554" fill="black" r="2" /><circle cx="161.5328954679974" cy="195.17903924053374" fill="black" r="2" /><circle cx="50.58014126846645" cy="97.91338658343221" fill="black" r="2" /><circle cx="198.23894384024803" cy="94.66343616747284" fill="black" r="2" /><circle cx="91.46503454893508" cy="196.91596548886682" fill="black" r="2" /><circle cx="101.1156480034217" cy="49.248513349878436" fill="black" r="2" /><circle cx="193.85310450517196" cy="164.75235842060027" fill="black" r="2" /><circle cx="47.30468549439678" cy="142.22463653826705" fill="black" r="2" /><circle cx="170.69032272006282" cy="59.74745667993842" fill="black" r="2" /><circle cx="135.40757123230506" cy="204.05335199119958" fill="black" r="2" /><circle cx="63.86024659954037" cy="73.69765547140184" fill="black" r="2" /><circle cx="204.81294886137198" cy="121.51529139639754" fill="black" r="2" /><circle cx="68.45576952509774" cy="181.54423047492236" fill="black" r="2" /><circle cx="128.4913906971758" cy="45.03400603381664" fill="black" r="2" /><circle cx="176.4992832355845" cy="186.37445581201553" fill="black" r="2" /><circle cx="45.49100531914122" cy="114.53244226960416" fill="black" r="2" /><circle cx="190.75449335793482" cy="78.95820807960115" fill="black" r="2" /><circle cx="107.60957873083385" cy="203.44312110109422" fill="black" r="2" /><circle cx="84.78806147422657" cy="55.350879402540784" fill="black" r="2" /><circle cx="201.77421453523175" cy="149.20681686009567" fill="black" r="2" /><circle cx="51.973297500540724" cy="159.05291062531168" fill="black" r="2" /><circle cx="155.8641958025407" cy="50.487239901729396" fill="black" r="2" /><circle cx="152.61058098079502" cy="200.85944778274467" fill="black" r="2" /><circle cx="53.3261765110625" cy="87.68896910461154" fill="black" r="2" /><circle cx="203.1236365604409" cy="104.06683467384481" fill="black" r="2" /><circle cx="81.50278418613826" cy="193.2769523078054" fill="black" r="2" /><circle cx="110.92913911802567" cy="45.2001824936916" fill="black" r="2" /><circle cx="189.346042549045" cy="174.37445501751378" fill="black" r="2" /><circle cx="44.127027084980355" cy="132.07546831570176" fill="black" r="2" /><circle cx="179.8966411521316" cy="65.09082883051968" fill="black" r="2" /><circle cx="125.00000000001495" cy="206.33265027035577" fill="black" r="2" /><circle cx="70.0016040966814" cy="64.97978300554198" fill="black" r="2" /><circle cx="206.17305918876326" cy="132.1017224627226" fill="black" r="2" /><circle cx="60.295480902566524" cy="174.64952374766415" fill="black" r="2" /><circle cx="139.17547838843709" cy="44.606867131209796" fill="black" r="2" /><circle cx="168.9018497904915" cy="193.91210042491173" fill="black" r="2" /><circle cx="46.00344655235598" cy="103.83293729887107" fill="black" r="2" /><circle cx="197.60902941741972" cy="87.20213171275032" fill="black" r="2" /><circle cx="96.9772980126687" cy="201.99174094231938" fill="black" r="2" /><circle cx="93.61704188714083" cy="49.23483689658865" fill="black" r="2" /><circle cx="199.3918057324316" cy="159.68946871700626" fill="black" r="2" /><circle cx="46.645607937594306" cy="149.70504492063952" fill="black" r="2" /><circle cx="166.11569043564498" cy="53.78553517718319" fill="black" r="2" /><circle cx="142.8142425276485" cy="205.35485525571008" fill="black" r="2" /><circle cx="57.51807759599687" cy="77.74864923983549" fill="black" r="2" /><circle cx="206.7491229661897" cy="114.23752378591259" fill="black" r="2" /><circle cx="71.95152093645517" cy="188.22071550563663" fill="black" r="2" /><circle cx="121.39690922640003" cy="42.475653671918124" fill="black" r="2" /><circle cx="183.4615258097263" cy="183.4615258097041" fill="black" r="2" /><circle cx="42.327627819634245" cy="121.39044627812709" fill="black" r="2" /><circle cx="188.44772060047904" cy="71.76104104508104" fill="black" r="2" /><circle cx="114.17950462583134" cy="207.18982224009" fill="black" r="2" /><circle cx="77.4087070816717" cy="57.03258988042967" fill="black" r="2" /><circle cx="206.07813586363807" cy="142.97458997800643" fill="black" r="2" /><circle cx="53.01562669579387" cy="166.56019730464106" fill="black" r="2" /><circle cx="150.01693339984834" cy="45.656424057977105" fill="black" r="2" /><circle cx="160.19042560299144" cy="200.4661112412739" fill="black" r="2" /><circle cx="48.00280224115829" cy="93.10671642358189" fill="black" r="2" /><circle cx="203.384109471312" cy="96.47051731297297" fill="black" r="2" /><circle cx="86.44952111502246" cy="199.05478092425162" fill="black" r="2" /><circle cx="103.37272996798424" cy="44.28592941151912" fill="black" r="2" /><circle cx="195.5367247833091" cy="169.93684965419482" fill="black" r="2" /><circle cx="42.563884753565745" cy="139.5357113027403" fill="black" r="2" /><circle cx="176.0026196271452" cy="58.53209202051909" fill="black" r="2" /><circle cx="132.30836112595165" cy="208.53494991710164" fill="black" r="2" /><circle cx="63.12248686727891" cy="68.29970574582592" fill="black" r="2" /><circle cx="209.0" cy="124.99999999998353" fill="black" r="2" /><circle cx="63.01496721516094" cy="181.79881786324805" fill="black" r="2" /><circle cx="132.33378158921573" cy="41.174492858070465" fill="black" r="2" /><circle cx="176.26895365545175" cy="191.81500124279833" fill="black" r="2" /><circle cx="41.989410101226866" cy="110.3629933163333" fill="black" r="2" /><circle cx="196.15170350516468" cy="79.67136569106523" fill="black" r="2" /><circle cx="103.14626023173639" cy="206.5592671505882" fill="black" r="2" /><circle cx="85.97814403638729" cy="50.039712132656106" fill="black" r="2" /><circle cx="204.48044396602873" cy="153.92851580988847" fill="black" r="2" /><circle cx="46.790173345421664" cy="157.39557091117254" fill="black" r="2" /><circle cx="160.80676712483532" cy="48.21214009970187" fill="black" r="2" /><circle cx="150.49933761424376" cy="205.873566640991" fill="black" r="2" /><circle cx="51.499999999997954" cy="82.56475521456608" fill="black" r="2" /><circle cx="207.9291482544445" cy="106.61505045445153" fill="black" r="2" /><circle cx="76.23756869210987" cy="194.63996907626608" fill="black" r="2" /><circle cx="113.89395436880913" cy="40.64120822085047" fill="black" r="2" /><circle cx="190.23533009206196" cy="179.73894141997738" fill="black" r="2" /><circle cx="39.85055098354178" cy="128.71770523220744" fill="black" r="2" /><circle cx="185.31790778865084" cy="64.68209221135221" fill="black" r="2" /><circle cx="121.27603072759099" cy="210.29291912496694" fill="black" r="2" /><circle cx="70.0764410527855" cy="59.54465130662085" fill="black" r="2" /><circle cx="209.78592763279977" cy="136.16227913311783" fill="black" r="2" /><circle cx="54.88948523962301" cy="174.09191094299507" fill="black" r="2" /><circle cx="143.5403618582763" cy="41.36983210489069" fill="black" r="2" /><circle cx="167.86607049871515" cy="199.246212024582" fill="black" r="2" /><circle cx="43.16769544346607" cy="99.19837348214894" fill="black" r="2" /><circle cx="202.8290987601431" cy="88.70769522083374" fill="black" r="2" /><circle cx="92.10981161447611" cy="204.40393886933288" fill="black" r="2" /><circle cx="95.58030281118248" cy="44.170046286551155" fill="black" r="2" /><circle cx="201.3615360109685" cy="164.75129957681332" fill="black" r="2" /><circle cx="41.77608641444043" cy="147.2997804362131" fill="black" r="2" /><circle cx="171.33177236119664" cy="52.27368516231381" fill="black" r="2" /><circle cx="139.98614961200354" cy="209.99067784061168" fill="black" r="2" /><circle cx="56.47589919879293" cy="72.41960812825742" fill="black" r="2" /><circle cx="211.1146791621025" cy="117.46594181014343" fill="black" r="2" /><circle cx="66.55168499234614" cy="188.785143041041" fill="black" r="2" /><circle cx="125.00000000000166" cy="38.41478186202913" fill="black" r="2" /><circle cx="183.54389694397435" cy="188.889452420672" fill="black" r="2" /><circle cx="38.60343897387524" cy="117.4412803426044" fill="black" r="2" /><circle cx="193.86083059708284" cy="72.1612262682047" fill="black" r="2" /><circle cx="109.91557950154011" cy="210.5479997324639" fill="black" r="2" /><circle cx="78.28814110314806" cy="51.67706880926954" fill="black" r="2" /><circle cx="209.04387342141933" cy="147.51948801204068" fill="black" r="2" /><circle cx="47.75999507139842" cy="165.2086015502853" fill="black" r="2" /><circle cx="154.80681511425104" cy="43.10644852770851" fill="black" r="2" /><circle cx="158.37747697788484" cy="205.58035759780896" fill="black" r="2" /><circle cx="45.88862220891491" cy="88.10975868883196" fill="black" r="2" /><circle cx="208.31660582981306" cy="98.73037508833518" fill="black" r="2" /><circle cx="81.28501401121582" cy="200.71657678474645" fill="black" r="2" /><circle cx="106.06153378040214" cy="39.574099377008906" fill="black" r="2" /><circle cx="196.73312160046225" cy="175.22807248395358" fill="black" r="2" /><circle cx="38.10988321371292" cy="136.43930089058736" fill="black" r="2" /><circle cx="181.37873965072353" cy="57.81043447531502" fill="black" r="2" /><circle cx="128.8288903437373" cy="212.69600674338392" fill="black" r="2" /><circle cx="62.88116227745484" cy="62.88116227745323" fill="black" r="2" /><circle cx="212.83531740585556" cy="128.83497277860033" fill="black" r="2" /><circle cx="57.59679461815455" cy="181.55800477609478" fill="black" r="2" /><circle cx="136.49390406906497" cy="37.69513089608843" fill="black" r="2" /><circle cx="175.54799974708993" cy="197.190025083582" fill="black" r="2" /><circle cx="38.893404148080506" cy="105.91062728128028" fill="black" r="2" /><circle cx="201.44115383743923" cy="80.86667925477454" fill="black" r="2" /><circle cx="98.43685061592099" cy="209.24754652094686" fill="black" r="2" /><circle cx="87.63829877738273" cy="44.87757316611109" fill="black" r="2" /><circle cx="206.7398467897784" cy="158.85775312662605" fill="black" r="2" /><circle cx="41.79606850018483" cy="155.2837544398654" fill="black" r="2" /><circle cx="165.91689399050236" cy="46.39937795303403" fill="black" r="2" /><circle cx="147.95259475460028" cy="210.6602497896842" fill="black" r="2" /><circle cx="50.14811828294343" cy="77.31409219260084" fill="black" r="2" /><circle cx="212.47066675571818" cy="109.5765614304041" fill="black" r="2" /><circle cx="70.8878201331645" cy="195.52036578222805" fill="black" r="2" /><circle cx="117.24681205767781" cy="36.38065630613693" fill="black" r="2" /><circle cx="190.6373545630997" cy="185.14555416618867" fill="black" r="2" /><circle cx="35.90454557049502" cy="124.99999999999939" fill="black" r="2" /><circle cx="190.73872505524452" cy="64.76155689170776" fill="black" r="2" /><circle cx="117.22284542265773" cy="213.8932835858825" fill="black" r="2" /><circle cx="70.63671818189343" cy="54.15239178373679" fill="black" r="2" /><circle cx="213.01228596684098" cy="140.51894064976753" fill="black" r="2" /><circle cx="49.568311929837364" cy="173.0552851920128" fill="black" r="2" /><circle cx="148.16611186172372" cy="38.542893518172235" fill="black" r="2" /><circle cx="166.36131084013516" cy="204.45433887199437" fill="black" r="2" /><circle cx="40.762439657521625" cy="94.34003542814645" fill="black" r="2" /><circle cx="207.8831169529859" cy="90.66868886631822" fill="black" r="2" /><circle cx="87.05721101368243" cy="206.36857356461263" fill="black" r="2" /><circle cx="97.98203991353267" cy="39.30997821936292" fill="black" r="2" /><circle cx="202.87008411450773" cy="169.95831402532227" fill="black" r="2" /><circle cx="37.148276258853855" cy="144.47625825741022" fill="black" r="2" /><circle cx="176.65214249041247" cy="51.23309565835012" fill="black" r="2" /><circle cx="136.7631186412743" cy="214.34975679782966" fill="black" r="2" /><circle cx="55.91145436057003" cy="67.02782683538246" fill="black" r="2" /><circle cx="215.17067444388366" cy="121.06306333107226" fill="black" r="2" /><circle cx="61.13099343186865" cy="188.86900656813125" fill="black" r="2" /><circle cx="128.9428524298233" cy="34.69383235505653" fill="black" r="2" /><circle cx="183.14652595879983" cy="194.29633120824377" fill="black" r="2" /><circle cx="35.24685624476486" cy="113.18377445830966" fill="black" r="2" /><circle cx="199.2112873030198" cy="73.03669721015939" fill="black" r="2" /><circle cx="105.37697057657586" cy="213.51376568787157" fill="black" r="2" /><circle cx="79.63481511113297" cy="46.42519487775415" fill="black" r="2" /><circle cx="211.59545092304148" cy="152.30344079846188" fill="black" r="2" /><circle cx="42.648084723622574" cy="163.40132875711927" fill="black" r="2" /><circle cx="159.79842527373694" cy="40.98916975491704" fill="black" r="2" /><circle cx="156.12383304264472" cy="210.51202849151443" fill="black" r="2" /><circle cx="44.22233359160745" cy="82.94980844735127" fill="black" r="2" /><circle cx="213.0291826360185" cy="101.41265160229958" fill="black" r="2" /><circle cx="75.99736255361567" cy="201.91873324033756" fill="black" r="2" /><circle cx="109.15133335492077" cy="35.117744990609225" fill="black" r="2" /><circle cx="197.46165599477087" cy="180.60178423841714" fill="black" r="2" /><circle cx="33.94486183487389" cy="132.96629234523797" fill="black" r="2" /><circle cx="186.7961960373122" cy="57.56128593072019" fill="black" r="2" /><circle cx="125.0000000000005" cy="216.53687781435414" fill="black" r="2" /><circle cx="63.113392508271644" cy="57.462619141954065" fill="black" r="2" /><circle cx="216.32177164411206" cy="132.98961975194382" fill="black" r="2" /><circle cx="52.219829696475" cy="180.84618886360911" fill="black" r="2" /><circle cx="140.94162149869496" cy="34.59057181912749" fill="black" r="2" /><circle cx="174.3621627177332" cy="202.48307487334267" fill="black" r="2" /><circle cx="36.19521486572553" cy="101.20482953926691" fill="black" r="2" /><circle cx="206.60861210559233" cy="82.51724549656686" fill="black" r="2" /><circle cx="93.50999161893603" cy="211.51808696544626" fill="black" r="2" /><circle cx="89.74064834818851" cy="39.87639504171655" fill="black" r="2" /><circle cx="208.56482173663613" cy="163.96691632813955" fill="black" r="2" /><circle cx="37.00055194189186" cy="152.74611939476094" fill="black" r="2" /><circle cx="171.1681708539484" cy="45.03438238842503" fill="black" r="2" /><circle cx="144.9995942125793" cy="215.2123396843922" fill="black" r="2" /><circle cx="49.253900313260004" cy="71.96201000936736" fill="black" r="2" /><circle cx="216.74347761300527" cy="112.9217420348794" fill="black" r="2" /><circle cx="65.4770343627543" cy="195.93670814005446" fill="black" r="2" /><circle cx="120.95790408254183" cy="32.4207827825593" fill="black" r="2" /><circle cx="190.57247898318394" cy="190.5724789831824" fill="black" r="2" /><circle cx="32.288809490731495" cy="120.95214200420513" fill="black" r="2" /><circle cx="196.13909573574796" cy="65.30721100585026" fill="black" r="2" /><circle cx="112.87001478338414" cy="217.13638509646816" fill="black" r="2" /><circle cx="71.6589333137636" cy="48.82106193458402" fill="black" r="2" /><circle cx="215.85718234288947" cy="145.14255238818888" fill="black" r="2" /><circle cx="44.347969647387316" cy="171.56447143478857" fill="black" r="2" /><circle cx="153.02418337203284" cy="36.11864567677493" fill="black" r="2" /><circle cx="164.41354313401166" cy="209.522616012659" fill="black" r="2" /><circle cx="38.77798051704046" cy="89.28567015496239" fill="black" r="2" /><circle cx="212.75944289044463" cy="93.05817501208193" fill="black" r="2" /><circle cx="81.84626313515236" cy="207.89755722938696" fill="black" r="2" /><circle cx="100.79453774661381" cy="34.66398504970513" fill="black" r="2" /><circle cx="203.93148199553968" cy="175.28489982079904" fill="black" r="2" /><circle cx="32.76919176079828" cy="141.2627799451262" fill="black" r="2" /><circle cx="182.0525092441184" cy="50.64772236878157" fill="black" r="2" /><circle cx="133.17384268203313" cy="218.42744937013626" fill="black" r="2" /><circle cx="55.80680671775508" cy="61.5961199656843" fill="black" r="2" /><circle cx="218.91485505499116" cy="124.99999999999835" fill="black" r="2" /><circle cx="55.71063823038594" cy="188.49200221728358" fill="black" r="2" /><circle cx="133.19657942325782" cy="31.312668488433147" fill="black" r="2" /><circle cx="182.2907253501379" cy="199.66272690476197" fill="black" r="2" /><circle cx="32.25536712630911" cy="108.64661890848576" fill="black" r="2" /><circle cx="204.48153382101864" cy="74.36467851925626" fill="black" r="2" /><circle cx="100.59197804571649" cy="216.09197804570505" fill="black" r="2" /><circle cx="81.42465346111788" cy="41.29253812224184" fill="black" r="2" /><circle cx="213.74002575990363" cy="157.29872796460623" fill="black" r="2" /><circle cx="37.69338417768415" cy="161.1635843585028" fill="black" r="2" /><circle cx="164.964808271631" cy="39.29519208462237" fill="black" r="2" /><circle cx="153.45565173566678" cy="215.2497971426997" fill="black" r="2" /><circle cx="42.99237840297552" cy="77.65287759536761" fill="black" r="2" /><circle cx="217.51274019492485" cy="104.49041927229288" fill="black" r="2" /><circle cx="70.61146315037507" cy="202.67488049142395" fill="black" r="2" /><circle cx="112.61461866653647" cy="30.92368879880179" fill="black" r="2" /><circle cx="197.73792672961576" cy="186.03436749141463" fill="black" r="2" /><circle cx="30.07333150519142" cy="129.14458785366133" fill="black" r="2" /><circle cx="192.23280449304332" cy="57.7671955069535" fill="black" r="2" /><circle cx="120.84979236364292" cy="220.0553826807042" fill="black" r="2" /><circle cx="63.80000298427596" cy="52.064683689755825" fill="black" r="2" /><circle cx="219.4595156844532" cy="137.43583116074439" fill="black" r="2" /><circle cx="46.902970310148106" cy="179.6841289006453" fill="black" r="2" /><circle cx="145.6490084427629" cy="31.858342025006294" fill="black" r="2" /><circle cx="172.73363593946516" cy="207.67708267711555" fill="black" r="2" /><circle cx="33.89007643458109" cy="96.2731514449718" fill="black" r="2" /><circle cx="211.63894785579492" cy="84.59959512033512" fill="black" r="2" /><circle cx="88.39267407979071" cy="213.3779027187881" fill="black" r="2" /><circle cx="92.26061418030025" cy="35.049276733597935" fill="black" r="2" /><circle cx="209.9645726100884" cy="169.22975696502317" fill="black" r="2" /><circle cx="32.41461131131818" cy="149.8081801300642" fill="black" r="2" /><circle cx="176.53526776173567" cy="44.10583348147898" fill="black" r="2" /><circle cx="141.66660699303716" cy="219.5210252342813" fill="black" r="2" /><circle cx="48.80399755633455" cy="66.53275094888653" fill="black" r="2" /><circle cx="220.74099647146224" cy="116.62374817406631" fill="black" r="2" /><circle cx="60.02820487219195" cy="195.90427235273017" fill="black" r="2" /><circle cx="124.99999999999713" cy="28.765910405927357" fill="black" r="2" /><circle cx="190.05779357066956" cy="195.99812318446277" fill="black" r="2" /><circle cx="29.005384550499727" cy="116.60155938863872" fill="black" r="2" /><circle cx="201.49896985123408" cy="66.30027588054628" fill="black" r="2" /><circle cx="108.24497537331163" cy="220.0224665527004" fill="black" r="2" /><circle cx="73.12275590642294" cy="43.56903816572331" fill="black" r="2" /><circle cx="218.32313253322445" cy="150.0058579974018" fill="black" r="2" /><circle cx="39.24504225275585" cy="169.6412054246788" fill="black" r="2" /><circle cx="158.08768696091926" cy="34.09232721284626" fill="black" r="2" /><circle cx="162.04575263647644" cy="214.43635844329197" fill="black" r="2" /><circle cx="37.207353566783354" cy="84.06161663851131" fill="black" r="2" /><circle cx="217.44538338967556" cy="95.85208257978115" fill="black" r="2" /><circle cx="76.50257738808065" cy="209.00000000000534" fill="black" r="2" /><circle cx="103.99280993124403" cy="30.242689118911997" fill="black" r="2" /><circle cx="204.5569135962453" cy="180.70635061677942" fill="black" r="2" /><circle cx="28.647319840487143" cy="137.68507099225766" fill="black" r="2" /><circle cx="187.50923605277347" cy="50.50439336377853" fill="black" r="2" /><circle cx="129.2446056998858" cy="222.21745379535764" fill="black" r="2" /><circle cx="56.14689549482651" cy="56.14689549483147" fill="black" r="2" /><circle cx="222.34313898526372" cy="129.25009323375755" fill="black" r="2" /><circle cx="50.31164891061785" cy="187.67096785234122" fill="black" r="2" /><circle cx="137.73433358922875" cy="28.273133266717252" fill="black" r="2" /><circle cx="180.99498649003567" cy="204.9691283432596" fill="black" r="2" /><circle cx="29.628571797564277" cy="103.85666339889448" fill="black" r="2" /><circle cx="209.65370635712551" cy="76.12515984679266" fill="black" r="2" /><circle cx="95.58726802662285" cy="218.28526785008594" fill="black" r="2" /><circle cx="83.63627136602517" cy="36.2951976863998" fill="black" r="2" /><circle cx="215.4824332907957" cy="162.47905102556228" fill="black" r="2" /><circle cx="32.910123162985684" cy="158.51797404592847" fill="black" r="2" /><circle cx="170.28021418864438" cy="38.01751783818487" fill="black" r="2" /><circle cx="150.3965981940756" cy="219.78139479965822" fill="black" r="2" /><circle cx="42.189653403453136" cy="72.24399089620428" fill="black" r="2" /><circle cx="221.75704849892273" cy="107.93912177591334" fill="black" r="2" /><circle cx="65.1514443602886" cy="202.99615623760167" fill="black" r="2" /><circle cx="116.42611610107238" cy="27.000058597529204" fill="black" r="2" /><circle cx="197.5750210413072" cy="191.5027542350978" fill="black" r="2" /><circle cx="26.50126904370798" cy="125.00000000000415" fill="black" r="2" /><circle cx="197.66671409243594" cy="58.41322456367054" fill="black" r="2" /><circle cx="116.40443747254727" cy="223.24772926046" fill="black" r="2" /><circle cx="64.92431430058386" cy="46.707842105706604" fill="black" r="2" /><circle cx="222.2469607373024" cy="142.14726296986106" fill="black" r="2" /><circle cx="41.66520011442334" cy="178.09012269745563" fill="black" r="2" /><circle cx="150.58973099998616" cy="29.49782375595649" fill="black" r="2" /><circle cx="170.68220241574483" cy="212.7546943613099" fill="black" r="2" /><circle cx="31.975176585579746" cy="91.14173322929938" fill="black" r="2" /><circle cx="216.51655181904823" cy="87.09260305492523" fill="black" r="2" /><circle cx="83.11066288043943" cy="214.83197334848995" fill="black" r="2" /><circle cx="95.17588116691046" cy="30.409979723917203" fill="black" r="2" /><circle cx="210.94620410466678" cy="174.62106407564193" fill="black" r="2" /><circle cx="28.05007048761381" cy="146.493281916528" fill="black" r="2" /><circle cx="181.99370191026463" cy="43.604558219984455" fill="black" r="2" /><circle cx="137.9778419385478" cy="223.57649627887002" fill="black" r="2" /><circle cx="48.78723970833789" cy="61.04990094827334" fill="black" r="2" /><circle cx="224.4554888046995" cy="120.65767958134249" fill="black" r="2" /><circle cx="54.56385870876002" cy="195.43614129124677" fill="black" r="2" /><circle cx="129.3476846213112" cy="25.421650754626327" fill="black" r="2" /><circle cx="189.10819595319896" cy="201.40117284195475" fill="black" r="2" /><circle cx="26.057726968019267" cy="111.97400263837828" fill="black" r="2" /><circle cx="206.7983919743159" cy="67.72414932612378" fill="black" r="2" /><circle cx="103.37363147484074" cy="222.5502444098117" fill="black" r="2" /><circle cx="75.01000100018257" cy="38.41478186203922" fill="black" r="2" /><circle cx="220.41102778834366" cy="155.08298150735584" fill="black" r="2" /><circle cx="34.276372308914915" cy="167.30512236797546" fill="black" r="2" /><circle cx="163.33095642590945" cy="32.46088513782384" fill="black" r="2" /><circle cx="159.27888248522578" cy="219.18045559225163" fill="black" r="2" /><circle cx="36.04537219882262" cy="78.69315177261575" fill="black" r="2" /><circle cx="221.92766066352294" cy="99.0283116009578" fill="black" r="2" /><circle cx="71.05086497592613" cy="209.6831791452957" fill="black" r="2" /><circle cx="107.55375848803308" cy="26.05744769258213" fill="black" r="2" /><circle cx="204.7556893725186" cy="186.1986929003743" fill="black" r="2" /><circle cx="24.792023149716897" cy="133.76706196927597" fill="black" r="2" /><circle cx="192.9992535222098" cy="50.79183656482098" fill="black" r="2" /><circle cx="125.00000000000547" cy="225.71246198956712" fill="black" r="2" /><circle cx="56.918572123283894" cy="50.702158993228466" fill="black" r="2" /><circle cx="225.4503181397444" cy="133.7882640847971" fill="black" r="2" /><circle cx="44.95481534039726" cy="186.42083044708932" fill="black" r="2" /><circle cx="142.53072743710882" cy="25.57830420111614" fill="black" r="2" /><circle cx="179.27590442652448" cy="210.19610436330277" fill="black" r="2" /><circle cx="27.367401607439945" cy="98.83942410578317" fill="black" r="2" /><circle cx="214.70986560385762" cy="78.29999985719695" fill="black" r="2" /><circle cx="90.38830502549658" cy="220.09485039155345" fill="black" r="2" /><circle cx="86.2501135756512" cy="31.449498653935223" fill="black" r="2" /><circle cx="216.82602084169733" cy="167.81917673636622" fill="black" r="2" /><circle cx="28.3129017831469" cy="155.4853249680006" fill="black" r="2" /><circle cx="175.71981861165125" cy="37.150697213915265" fill="black" r="2" /><circle cx="146.96862081471826" cy="224.09404472267306" fill="black" r="2" /><circle cx="41.806650601340934" cy="66.7473896221583" fill="black" r="2" /><circle cx="225.7512395125477" cy="111.73584768312554" fill="black" r="2" /><circle cx="59.64079448501582" cy="202.89206798159915" fill="black" r="2" /><circle cx="120.56211585447775" cy="23.35574200029339" fill="black" r="2" /><circle cx="196.9843733042153" cy="196.9843733042066" fill="black" r="2" /><circle cx="23.2355240304218" cy="120.5568670245941" fill="black" r="2" /><circle cx="203.07642816370168" cy="59.48609792419376" fill="black" r="2" /><circle cx="111.68872798834802" cy="226.10914912821596" fill="black" r="2" /><circle cx="66.47130935335348" cy="41.41236711576795" fill="black" r="2" /><circle cx="224.68144788001254" cy="147.0988449595074" fill="black" r="2" /><circle cx="36.525427381659185" cy="176.08081831766142" fill="black" r="2" /><circle cx="155.7386198552586" cy="27.50955303521323" fill="black" r="2" /><circle cx="168.22601890798705" cy="217.69849669420938" fill="black" r="2" /><circle cx="30.448930070957047" cy="85.83566449851054" fill="black" r="2" /><circle cx="221.22562556446815" cy="89.97673652089546" fill="black" r="2" /><circle cx="77.68879003305321" cy="215.88398875194397" fill="black" r="2" /><circle cx="98.46568265881773" cy="25.97257953860742" fill="black" r="2" /><circle cx="211.5154792905068" cy="180.11643895548667" fill="black" r="2" /><circle cx="23.919186390351328" cy="142.82327467138023" fill="black" r="2" /><circle cx="187.51968020766748" cy="43.52276645141298" fill="black" r="2" /><circle cx="133.95607425348638" cy="227.36839714465611" fill="black" r="2" /><circle cx="49.19386989368266" cy="55.536479801955835" fill="black" r="2" /><circle cx="227.87856919689347" cy="124.99999999996976" fill="black" r="2" /><circle cx="49.10608048372279" cy="194.54396437115759" fill="black" r="2" /><circle cx="133.976829957447" cy="22.394364073336206" fill="black" r="2" /><circle cx="187.73714062150776" cy="206.7606334774698" fill="black" r="2" /><circle cx="23.450131371777886" cy="107.09401827346996" fill="black" r="2" /><circle cx="212.01760468661757" cy="69.56367188743869" fill="black" r="2" /><circle cx="98.28077228691461" cy="224.7175153642342" fill="black" r="2" /><circle cx="77.3039162076746" cy="33.37667550849578" fill="black" r="2" /><circle cx="222.1207669383835" cy="160.34906829465515" fill="black" r="2" /><circle cx="29.458839512220734" cy="164.57444443891043" fill="black" r="2" /><circle cx="168.7292491182503" cy="31.2223226372395" fill="black" r="2" /><circle cx="156.13249126941756" cy="223.73964749460896" fill="black" r="2" /><circle cx="35.28796067415834" cy="73.20472994569255" fill="black" r="2" /><circle cx="226.192739692829" cy="102.56610971188127" fill="black" r="2" /><circle cx="65.51511810361515" cy="209.9532155116753" fill="black" r="2" /><circle cx="111.45558816380111" cy="22.119978090926537" fill="black" r="2" /><circle cx="204.53592696150457" cy="191.73856697872836" fill="black" r="2" /><circle cx="21.213121661549394" cy="129.5314329697848" fill="black" r="2" /><circle cx="198.49999999997794" cy="51.499999999977945" fill="black" r="2" /><circle cx="120.46342643530477" cy="228.90461731940553" fill="black" r="2" /><circle cx="58.10992643132376" cy="45.283514515646885" fill="black" r="2" /><circle cx="228.2305511083224" cy="138.59055988074212" fill="black" r="2" /><circle cx="39.66063151868292" cy="184.75526911670624" fill="black" r="2" /><circle cx="147.56142906605623" cy="23.231970056911706" fill="black" r="2" /><circle cx="177.14882549012958" cy="215.32441530394763" fill="black" r="2" /><circle cx="25.47356996676136" cy="93.61943714910683" fill="black" r="2" /><circle cx="219.6321613263803" cy="80.87229846572635" fill="black" r="2" /><circle cx="85.01965320283627" cy="221.5210954661131" fill="black" r="2" /><circle cx="89.24785062378612" cy="26.771776891868356" fill="black" r="2" /><circle cx="217.77323437112176" cy="173.2946889866879" fill="black" r="2" /><circle cx="23.91642762163673" cy="152.0852615868519" fill="black" r="2" /><circle cx="181.25952822784723" cy="36.6902299653087" fill="black" r="2" /><circle cx="143.19249562667426" cy="228.17476970109232" fill="black" r="2" /><circle cx="41.83685199455036" cy="61.18667213016016" fill="black" r="2" /><circle cx="229.48415594483788" cy="115.85882083674102" fill="black" r="2" /><circle cx="54.102448582281" cy="202.37110056714903" fill="black" r="2" /><circle cx="124.99999999996784" cy="20.0" fill="black" r="2" /><circle cx="195.9763702874498" cy="202.45711626970638" fill="black" r="2" /><circle cx="20.283398482120788" cy="115.83848448422972" fill="black" r="2" /><circle cx="208.44082206020127" cy="60.973605334066875" fill="black" r="2" /><circle cx="106.7264683570074" cy="228.6343477872686" fill="black" r="2" /><circle cx="68.4270457913863" cy="36.198249723836554" fill="black" r="2" /><circle cx="226.75972421322115" cy="152.2664359249458" fill="black" r="2" /><circle cx="31.50236797067717" cy="173.67178653911674" fill="black" r="2" /><circle cx="161.07137132952278" cy="25.894721783309222" fill="black" r="2" /><circle cx="165.3821694241022" cy="222.49118110169303" fill="black" r="2" /><circle cx="29.310463270585473" cy="80.37923621776486" fill="black" r="2" /><circle cx="225.75038964254787" cy="93.23352416658743" fill="black" r="2" /><circle cx="72.15115895311928" cy="216.53687781436253" fill="black" r="2" /><circle cx="102.11029562406215" cy="21.751215825162518" fill="black" r="2" /><circle cx="211.67735729342434" cy="185.69213896896414" fill="black" r="2" /><circle cx="20.03436013290772" cy="138.818988649387" fill="black" r="2" /><circle cx="193.08999118224705" cy="43.853508388830974" fill="black" r="2" /><circle cx="129.62308920857404" cy="230.88615134270185" fill="black" r="2" /><circle cx="50.015001500276654" cy="50.01500150032351" fill="black" r="2" /><circle cx="231.00155862637754" cy="129.62812799937976" fill="black" r="2" /><circle cx="43.67652564509753" cy="193.23849733726206" fill="black" r="2" /><circle cx="138.86422277573723" cy="19.69077283150955" fill="black" r="2" /><circle cx="185.95717140424833" cy="212.0558628375659" fill="black" r="2" /><circle cx="21.187318763366008" cy="101.98528265520032" fill="black" r="2" /><circle cx="217.1371260676167" cy="71.80460546250164" fill="black" r="2" /><circle cx="92.99036552734519" cy="226.52159031913868" fill="black" r="2" /><circle cx="79.98867503880572" cy="28.472902119468202" fill="black" r="2" /><circle cx="223.4517085439876" cy="165.78003291771262" fill="black" r="2" /><circle cx="24.80919895175731" cy="161.46646932884306" fill="black" r="2" /><circle cx="174.25853611411216" cy="30.37523252395964" fill="black" r="2" /><circle cx="152.62522024697415" cy="228.09872553191997" fill="black" r="2" /><circle cx="34.93167698744456" cy="67.62014996790269" fill="black" r="2" /><circle cx="230.22706555709277" cy="106.44562924151558" fill="black" r="2" /><circle cx="59.91873376786266" cy="209.8155574503974" fill="black" r="2" /><circle cx="115.6773905500852" cy="18.44208638939874" fill="black" r="2" /><circle cx="203.90503814236376" cy="197.30314623688324" fill="black" r="2" /><circle cx="17.92059021455151" cy="125.0000000000341" fill="black" r="2" /><circle cx="203.98938347711325" cy="52.61956550347638" fill="black" r="2" /><circle cx="115.65744911673055" cy="231.7858452370609" fill="black" r="2" /><circle cx="59.70980460687203" cy="39.91216076590514" fill="black" r="2" /><circle cx="230.6777188634195" cy="143.63383309531542" fill="black" r="2" /><circle cx="34.44925081025701" cy="182.6871894026417" fill="black" r="2" /><circle cx="152.80287622737322" cy="21.23825332288702" fill="black" r="2" /><circle cx="174.62831047591865" cy="220.33509741593502" fill="black" r="2" /><circle cx="23.949176301647256" cy="88.22050802574303" fill="black" r="2" /><circle cx="224.40295487486583" cy="83.82594795085885" fill="black" r="2" /><circle cx="79.50518828949777" cy="222.56393856044326" fill="black" r="2" /><circle cx="92.61194724733802" cy="22.27822023109809" fill="black" r="2" /><circle cx="218.3260413818229" cy="178.88181511417633" fill="black" r="2" /><circle cx="19.735322635635825" cy="148.3366171365156" fill="black" r="2" /><circle cx="186.87584578027722" cy="36.63213418342983" fill="black" r="2" /><circle cx="139.08821502516236" cy="232.01061721812835" fill="black" r="2" /><circle cx="42.27429345132634" cy="55.58489014614521" fill="black" r="2" /><circle cx="232.9446060583797" cy="120.28703671760371" fill="black" r="2" /><circle cx="48.55884616257937" cy="201.44115383747027" fill="black" r="2" /><circle cx="129.71790608738596" cy="16.942185094503202" fill="black" r="2" /><circle cx="194.56078705472018" cy="207.89931787613136" fill="black" r="2" /><circle cx="17.652340633242034" cy="110.86741253419949" fill="black" r="2" /><circle cx="213.7391610057034" cy="62.864170529364905" fill="black" r="2" /><circle cx="101.54075134580488" cy="230.81783239407545" fill="black" r="2" /><circle cx="70.77823315309396" cy="31.0851449450101" fill="black" r="2" /><circle cx="228.4782891561941" cy="157.6265792461772" fill="black" r="2" /><circle cx="26.614455872961358" cy="170.87793267821178" fill="black" r="2" /><circle cx="166.56433614913104" cy="24.654815957705082" fill="black" r="2" /><circle cx="162.1670631823904" cy="227.11566684106901" fill="black" r="2" /><circle cx="28.559239819927086" cy="74.7961179201283" fill="black" r="2" /><circle cx="230.07523879506783" cy="96.84517462033425" fill="black" r="2" /><circle cx="66.52128709528564" cy="216.79319221493495" fill="black" r="2" /><circle cx="106.0906781887862" cy="17.759906990715677" fill="black" r="2" /><circle cx="211.43638345666142" cy="191.32496976955957" fill="black" r="2" /><circle cx="16.407923573662558" cy="134.50057563605927" fill="black" r="2" /><circle cx="198.68193207616181" cy="44.590281150075654" fill="black" r="2" /><circle cx="125.0000000000361" cy="234.11920087683927" fill="black" r="2" /><circle cx="51.24222443274256" cy="44.50751250352566" fill="black" r="2" /><circle cx="233.81574726358656" cy="134.52014429865727" fill="black" r="2" /><circle cx="38.29642461252155" cy="191.52999334907406" fill="black" r="2" /><circle cx="143.9872987267986" cy="17.31767792687924" fill="black" r="2" /><circle cx="183.78030702933273" cy="217.26660016244978" fill="black" r="2" /><circle cx="19.274134314161756" cy="96.67083967040165" fill="black" r="2" /><circle cx="222.1378113996861" cy="74.43325602256937" fill="black" r="2" /><circle cx="87.52576578265354" cy="227.95961232358763" fill="black" r="2" /><circle cx="83.0490105373677" cy="23.721352284372827" fill="black" r="2" /><circle cx="224.40300184281125" cy="171.35238100290067" fill="black" r="2" /><circle cx="20.34395829835553" cy="157.99792319743247" fill="black" r="2" /><circle cx="179.895354994736" cy="29.918456049547046" fill="black" r="2" /><circle cx="148.77513054296028" cy="232.2426835157774" fill="black" r="2" /><circle cx="34.97336421603457" cy="61.96267098439819" fill="black" r="2" /><circle cx="234.01724103141422" cy="110.64760793809835" fill="black" r="2" /><circle cx="54.28459819214082" cy="209.2753341562822" fill="black" r="2" /><circle cx="120.19884472527721" cy="15.035465226155765" fill="black" r="2" /><circle cx="202.8700841145307" cy="202.87008411447823" fill="black" r="2" /><circle cx="14.924333783165963" cy="120.19399262171363" fill="black" r="2" /><circle cx="209.44575967745953" cy="54.14159420014626" fill="black" r="2" /><circle cx="110.60404974370466" cy="234.3480983658073" fill="black" r="2" /><circle cx="61.70745808232388" cy="34.60888241868446" fill="black" r="2" /><circle cx="232.78568791644983" cy="148.89551172035627" fill="black" r="2" /><circle cx="29.340447418986827" cy="180.22906843321167" fill="black" r="2" /><circle cx="158.23207257366266" cy="19.601331353480475" fill="black" r="2" /><circle cx="171.7284713947593" cy="225.2095302908319" fill="black" r="2" /><circle cx="22.796413929188333" cy="82.66588852631733" fill="black" r="2" /><circle cx="229.0049143747729" cy="87.14530695017916" fill="black" r="2" /><circle cx="125" cy="125" fill="none" r="113.67971810589327" stroke="red" /><circle cx="125" cy="125" fill="none" r="5" stroke="red" /></svg>